<svg width="23" height="23" viewBox="0 0 23 23" fill="none" xmlns="http://www.w3.org/2000/svg">
<path d="M23 11.5C23 11.5 18.6875 3.59375 11.5 3.59375C4.3125 3.59375 0 11.5 0 11.5C0 11.5 4.3125 19.4062 11.5 19.4062C18.6875 19.4062 23 11.5 23 11.5ZM1.68619 11.5C2.38124 10.4436 3.18067 9.45974 4.07244 8.56319C5.9225 6.71025 8.4525 5.03125 11.5 5.03125C14.5475 5.03125 17.0761 6.71025 18.929 8.56319C19.8208 9.45974 20.6202 10.4436 21.3153 11.5C21.2319 11.6251 21.1399 11.7631 21.0349 11.914C20.5534 12.604 19.8418 13.524 18.929 14.4368C17.0761 16.2898 14.5461 17.9688 11.5 17.9688C8.4525 17.9688 5.92394 16.2898 4.071 14.4368C3.17924 13.5403 2.38125 12.5564 1.68619 11.5Z" fill="#E1B0DA"/>
<path d="M11.5 7.90625C10.5469 7.90625 9.63279 8.28488 8.95884 8.95884C8.28488 9.63279 7.90625 10.5469 7.90625 11.5C7.90625 12.4531 8.28488 13.3672 8.95884 14.0412C9.63279 14.7151 10.5469 15.0938 11.5 15.0938C12.4531 15.0938 13.3672 14.7151 14.0412 14.0412C14.7151 13.3672 15.0938 12.4531 15.0938 11.5C15.0938 10.5469 14.7151 9.63279 14.0412 8.95884C13.3672 8.28488 12.4531 7.90625 11.5 7.90625ZM6.46875 11.5C6.46875 10.1656 6.99883 8.88591 7.94237 7.94237C8.88591 6.99883 10.1656 6.46875 11.5 6.46875C12.8344 6.46875 14.1141 6.99883 15.0576 7.94237C16.0012 8.88591 16.5312 10.1656 16.5312 11.5C16.5312 12.8344 16.0012 14.1141 15.0576 15.0576C14.1141 16.0012 12.8344 16.5312 11.5 16.5312C10.1656 16.5312 8.88591 16.0012 7.94237 15.0576C6.99883 14.1141 6.46875 12.8344 6.46875 11.5Z" fill="#E1B0DA"/>
</svg>
