<svg width="198" height="285" viewBox="0 0 198 285" fill="none" xmlns="http://www.w3.org/2000/svg">
<g opacity="0.38">
<mask id="path-1-outside-1_214_20" maskUnits="userSpaceOnUse" x="-60.0474" y="-44.2476" width="314.623" height="359.21" fill="black">
<rect fill="white" x="-60.0474" y="-44.2476" width="314.623" height="359.21"/>
<path d="M4.63053 167.568C14.1293 151.014 22.2013 133.53 27.2116 115.075C32.1835 96.7703 34.0245 77.502 31.2748 58.6928C30.1789 51.2048 28.3683 43.8253 25.7127 36.7522C25.4454 35.2795 25.0973 33.8196 24.6341 32.3902C29.226 35.1379 33.7275 38.0486 38.1439 41.0758C41.9494 48.2071 41.4177 56.6532 40.3412 64.4958C39.1604 73.2051 37.9903 81.8508 37.5323 90.6361C36.585 108.905 37.6529 127.162 39.2571 145.359C40.1709 155.728 41.3152 166.065 42.4078 176.413C42.4993 177.237 43.5427 177.539 44.0008 176.794C48.8793 168.683 53.7169 160.52 57.4036 151.791C60.8718 143.568 63.0304 135.006 63.7352 126.107C65.191 107.416 60.5842 88.7834 53.7142 71.5396C50.312 62.9951 46.5064 54.5142 42.2312 46.3342C41.975 45.2767 41.6325 44.2492 41.2382 43.234C51.6242 50.604 61.4714 58.7316 70.6632 67.5321C76.5678 80.689 73.2681 95.6757 71.0841 109.418C68.6871 124.547 68.3482 139.86 67.9454 155.133C67.7069 164.371 67.5202 173.596 67.3973 182.832C67.3877 183.432 68.2271 183.593 68.5095 183.099C76.4808 169.44 82.6144 154.337 85.3111 138.719C88.0726 122.748 87.5171 106.156 82.9842 90.5623C81.1286 84.164 78.6234 78.0001 75.4069 72.2041C75.8926 72.6931 76.3838 73.1647 76.8579 73.6596C90.0433 87.1718 101.608 102.161 111.396 118.244C97.8001 136.801 88.1668 158.126 83.1676 180.567C81.7267 187.03 80.6911 193.575 80.0027 200.171C79.9251 200.865 81.0277 201.281 81.4536 200.727C95.876 181.772 107.638 160.288 111.495 136.566C112.372 131.207 112.741 125.762 112.642 120.342C118.344 129.903 123.416 139.848 127.85 150.079C120.717 158.442 114.166 167.143 108.793 176.773C103.177 186.833 98.8182 197.608 95.7742 208.703C94.0317 215.061 93.0172 221.45 91.9461 227.925C91.8225 228.642 92.6727 229.189 93.2256 228.628C97.1868 224.59 100.614 219.914 103.852 215.293C107.174 210.556 110.235 205.62 112.981 200.527C118.429 190.452 122.794 179.689 125.688 168.613C127.091 163.258 128.187 157.814 128.815 152.308C129.518 153.977 130.209 155.651 130.878 157.337C133.695 164.413 136.214 171.644 138.446 178.965C135.955 183.737 132.394 187.873 129.355 192.289C126.159 196.932 123.212 201.751 120.458 206.659C114.994 216.394 110.368 226.596 106.611 237.102C104.444 243.172 102.439 249.361 101.112 255.679C100.954 256.414 101.832 256.874 102.368 256.365C110.742 248.404 117.05 238.247 122.543 228.149C127.891 218.329 132.296 207.981 135.564 197.291C137.099 192.274 138.338 187.192 139.346 182.055C139.546 182.75 139.734 183.451 139.922 184.152C140.681 189.753 140.678 195.285 140.07 200.969C139.374 207.41 138.03 213.751 136.795 220.108C134.165 233.718 131.829 247.757 131.668 261.642C131.58 269.119 132.416 276.639 134.738 283.769C135.02 284.624 136.092 284.476 136.371 283.722C144.273 262.001 149.727 238.556 147.712 215.375C147.237 209.932 146.314 204.633 144.808 199.418C143.68 193.413 142.367 187.445 140.812 181.544C150.104 199.45 164.039 214.636 178.169 228.849C182.575 233.29 187.226 237.531 191.507 242.094C191.993 242.612 192.875 242.04 192.67 241.391C189.39 230.693 183.993 220.205 177.323 211.247C170.876 202.608 162.979 195.185 154.673 188.35C149.998 184.513 145.157 180.863 140.323 177.225C140.264 177.111 140.199 176.985 140.139 176.87C139.968 176.538 139.689 176.45 139.425 176.529C138.046 171.756 136.541 167.019 134.852 162.32C133.426 158.355 131.891 154.432 130.259 150.545C138.011 155.664 143.916 163.001 150.097 169.861C157.139 177.655 165.193 184.257 173.255 190.957C177.867 194.783 182.583 198.671 186.573 203.152C186.989 203.619 187.78 203.095 187.587 202.526C184.155 192.575 177.832 183.219 170.928 175.355C163.807 167.239 155.309 160.315 145.897 154.995C140.614 152.01 134.971 149.646 129.196 147.815C129.161 147.804 129.12 147.811 129.074 147.806C125.02 138.423 120.409 129.285 115.277 120.46C118.793 123.575 122.31 126.69 126.043 129.549C130.942 133.313 135.972 136.879 141.149 140.253C146.344 143.632 151.675 146.796 157.118 149.756C162.759 152.817 168.569 155.501 174.277 158.412C180.974 161.827 186.875 166.234 192.921 170.668C193.58 171.154 194.249 170.199 193.941 169.603C187.596 157.647 177.181 148.478 166.117 140.979C160.344 137.072 154.322 133.555 148.26 130.102C142.89 127.031 137.486 123.977 131.845 121.424C125.711 118.646 119.24 116.595 112.537 115.839C109.009 110.059 105.229 104.439 101.254 98.9479C112.248 104.204 123.22 109.587 134.842 113.357C141.064 115.377 147.449 117.009 153.934 117.878C160.384 118.735 166.869 118.791 173.367 118.869C181.049 118.959 188.799 119.014 196.219 121.213C196.7 121.356 197.084 120.664 196.704 120.323C191.63 115.967 185.797 112.424 179.913 109.286C173.982 106.113 167.808 103.429 161.445 101.249C148.568 96.8225 134.942 94.2928 121.301 94.2089C114.122 94.1635 106.977 94.9136 99.9316 96.2505C99.8676 96.2111 99.798 96.189 99.734 96.1496C99.5363 96.0487 99.3457 96.0457 99.167 96.0656C91.6331 85.9721 83.3613 76.4199 74.4168 67.5351C84.8917 72.8562 96.335 76.254 108.033 77.4736C121.836 78.9106 135.344 76.349 149.095 75.5488C156.758 75.0969 165.394 74.8096 172.643 77.6917C173.392 77.9865 173.975 77.0321 173.258 76.5753C167.576 72.984 161.035 70.4607 154.706 68.2631C148.198 65.9989 141.512 64.3197 134.701 63.2135C128.156 62.1437 121.531 61.5654 114.906 61.5235C107.872 61.476 100.93 62.2808 93.9719 63.2243C86.4319 64.2512 78.7586 65.2454 71.1909 64.1387C70.9874 64.0263 70.7897 63.9253 70.5861 63.813C63.073 56.6549 55.1442 49.9586 46.8239 43.7987C45.2905 42.6617 43.74 41.548 42.178 40.4403C69.3688 49.6245 100.41 53.3482 127.708 42.6954C136.229 39.3759 144.403 34.6829 151.982 29.5718C152.543 29.1945 152.513 28.151 151.737 28.0296C137.329 25.7593 122.636 24.7679 108.106 26.4792C100.801 27.3412 93.5733 28.8596 86.5323 30.9636C78.64 33.3338 70.9533 36.4104 62.8796 38.1488C58.9925 38.9841 55.0072 39.3767 51.0382 39.2384C48.6233 39.1524 46.2224 38.8125 43.8655 38.3047C41.4971 37.8027 39.0274 37.4984 36.7855 36.5102C34.6366 35.5609 32.8495 34.0181 30.8986 32.7488C28.7729 31.3666 26.5336 30.1303 24.3514 28.8355C24.2059 28.7511 24.043 28.6612 23.8976 28.5768C30.0648 26.3298 36.6616 26.4875 43.1576 26.4505C49.8095 26.4056 56.4136 25.7902 62.9695 24.5758C76.2886 22.0977 89.0823 17.3951 101.516 12.0806C108.603 9.0531 115.607 5.86528 122.687 2.82629C123.52 2.46809 123.361 1.31685 122.436 1.27263C108.342 0.508972 93.9241 1.08815 79.9269 2.9301C66.3331 4.70852 52.9094 8.02447 40.4356 13.7952C33.4095 17.0525 26.3106 20.9281 21.5528 27.2209C18.6381 25.5503 15.7122 23.9145 12.7238 22.3546C8.6946 20.2446 4.65394 18.1405 0.276909 16.82C-0.824546 16.49 -1.31809 18.066 -0.433117 18.6241C3.00799 20.8062 6.69702 22.5116 10.3246 24.3795C13.7779 26.1633 17.1975 28.0226 20.566 29.9519C20.9965 30.1937 21.4214 30.4528 21.8463 30.712C22.6626 32.6554 23.4271 34.611 24.1457 36.5905C25.2212 42.9425 24.4647 49.6327 22.9457 55.861C20.692 65.1108 17.03 73.9716 14.33 83.0895C9.17336 100.503 5.77291 118.415 4.14752 136.498C3.22892 146.726 2.97427 156.945 3.19375 167.208C3.18088 167.999 4.24644 168.231 4.63053 167.568ZM50.6668 68.5444C54.3393 77.4425 57.5583 86.5607 59.7011 95.9599C63.638 113.241 63.8616 131.412 57.4432 148.157C53.9574 157.246 48.8801 165.62 43.7958 173.896C41.5451 156.164 39.4902 138.388 38.7969 120.518C38.441 111.312 38.4081 102.084 38.9242 92.8769C39.4458 83.6523 40.7491 74.5893 42.0804 65.4683C42.738 60.9483 43.3108 56.1238 42.9964 51.468C45.6222 57.1341 48.2824 62.7824 50.6668 68.5444ZM91.896 182.568C88.8484 187.584 85.5327 192.42 82.0539 197.137C84.7362 175.053 91.9239 153.498 102.934 134.159C105.571 129.53 108.429 125.018 111.473 120.642C110.754 142.697 103.34 163.731 91.896 182.568ZM119.694 182.019C115.633 192.581 110.347 202.717 104.024 212.113C100.868 216.808 97.3097 221.145 93.7745 225.528C94.4505 220.65 95.5944 215.777 96.8267 211.047C98.2684 205.541 100.029 200.116 102.12 194.825C106.252 184.343 111.567 174.293 117.967 165.017C121.039 160.554 124.379 156.243 128.04 152.245C125.959 162.363 123.415 172.344 119.694 182.019ZM114.059 239.664C110.876 244.474 107.468 249.271 103.374 253.362C106.358 243.415 109.506 233.616 113.754 224.089C118.305 213.883 123.721 204.057 129.942 194.772C132.763 190.555 136.02 186.505 138.602 182.107C133.767 202.503 125.631 222.169 114.059 239.664ZM163.729 198.237C171.61 205.77 178.378 214.242 183.533 223.869C186.166 228.791 188.242 233.9 190.249 239.073C186.988 236.058 183.852 232.891 180.71 229.77C176.914 226.001 173.168 222.191 169.526 218.27C162.129 210.326 155.211 201.844 149.273 192.754C146.539 188.566 143.977 184.232 141.627 179.802C149.233 185.649 156.794 191.607 163.729 198.237ZM146.591 230.469C146.059 242.064 143.875 253.528 140.768 264.699C139.251 270.143 137.489 275.51 135.624 280.843C131.962 268.282 133.329 254.789 135.011 241.989C135.941 234.875 137.109 227.798 138.484 220.759C139.724 214.413 141.098 208.072 141.829 201.641C142.144 198.822 142.332 195.924 142.306 193.035C143.592 198.247 144.711 203.474 145.657 208.732C146.576 215.934 146.918 223.202 146.591 230.469ZM178.249 187.285C180.942 191.451 183.112 195.814 185.185 200.272C177.905 193.733 170.341 187.574 162.947 181.152C158.912 177.652 155.087 173.941 151.519 169.967C148.155 166.221 144.947 162.352 141.498 158.693C138.359 155.353 134.981 152.253 131.218 149.672C150.384 156.781 167.142 170.144 178.249 187.285ZM145.519 129.836C157.079 136.439 168.837 143.172 178.576 152.356C183.317 156.827 187.499 161.818 190.892 167.364C186.474 164.25 181.955 161.305 177.215 158.692C171.66 155.629 165.88 153.003 160.303 149.981C149.306 144.016 138.759 137.15 128.843 129.537C123.506 125.433 118.123 121.324 113.195 116.718C124.848 118.411 135.425 124.071 145.519 129.836ZM177.09 109.338C183.071 112.383 188.605 116.052 194.116 119.819C188.527 118.937 182.855 118.46 177.199 118.237C170.52 117.976 163.826 117.912 157.192 117.063C144.2 115.395 131.757 111.049 119.828 105.783C113.724 103.092 107.715 100.192 101.769 97.187C127.397 93.6529 154.006 97.6085 177.09 109.338ZM110.832 63.4862C124.51 63.3043 137.949 65.1907 151.056 69.1064C157.01 70.8885 162.608 73.3044 168.253 75.7831C163.353 75.0816 158.484 74.5815 153.455 74.6721C146.62 74.7832 139.815 75.4879 133.008 76.0485C126.258 76.6083 119.49 77.0472 112.717 76.6325C105.689 76.2042 98.7031 74.9563 91.95 72.9783C85.336 71.0444 78.9891 68.3337 72.9298 65.0823C85.4233 67.0806 98.2682 63.6577 110.832 63.4862ZM84.9708 112.422C85.9862 127.963 83.4523 143.671 78.4515 158.406C75.876 165.994 72.54 173.264 68.6924 180.276C69.3524 164.797 69.6254 149.3 70.5049 133.824C70.9567 125.898 71.6742 117.98 72.8951 110.135C74.0738 102.603 75.6452 95.0701 75.8349 87.425C75.9573 82.6013 75.4482 77.6253 74.0539 72.9621C80.3052 85.2431 84.0647 98.6389 84.9708 112.422ZM81.0062 34.1126C95.593 29.1935 110.674 26.3552 126.094 26.419C133.948 26.4488 141.697 27.3164 149.315 29.1665C142.833 32.9985 136.54 37.0815 129.579 40.0726C122.745 42.9984 115.536 45.001 108.2 46.1692C93.6598 48.4805 78.8244 47.5776 64.4433 44.7417C58.9201 43.6513 53.4794 42.2425 48.0775 40.7119C59.1997 41.6054 70.4441 37.6752 81.0062 34.1126ZM39.2379 16.287C45.4238 13.2611 51.9012 10.8827 58.5296 9.02116C71.7922 5.30958 85.5559 3.71906 99.2809 3.14996C105.872 2.87515 112.444 2.92939 119.027 2.89117C95.8879 14.4986 70.6815 24.7807 44.4888 24.8911C37.6403 24.9217 30.6072 24.5108 24.0228 26.6543C28.2145 22.1347 33.7232 18.9802 39.2379 16.287ZM9.35251 111.223C11.0588 102.067 13.2396 92.9857 15.8786 84.059C18.6005 74.8427 22.3135 65.912 24.6123 56.5807C25.6711 52.2741 26.3294 47.8117 26.3186 43.4053C30.0732 56.4262 31.5255 70.0287 30.8242 83.6567C29.8384 102.526 24.794 121.028 17.483 138.409C13.7574 147.259 9.42768 155.841 4.71419 164.216C4.5076 146.471 6.09601 128.654 9.35251 111.223Z"/>
</mask>
<path d="M4.63053 167.568C14.1293 151.014 22.2013 133.53 27.2116 115.075C32.1835 96.7703 34.0245 77.502 31.2748 58.6928C30.1789 51.2048 28.3683 43.8253 25.7127 36.7522C25.4454 35.2795 25.0973 33.8196 24.6341 32.3902C29.226 35.1379 33.7275 38.0486 38.1439 41.0758C41.9494 48.2071 41.4177 56.6532 40.3412 64.4958C39.1604 73.2051 37.9903 81.8508 37.5323 90.6361C36.585 108.905 37.6529 127.162 39.2571 145.359C40.1709 155.728 41.3152 166.065 42.4078 176.413C42.4993 177.237 43.5427 177.539 44.0008 176.794C48.8793 168.683 53.7169 160.52 57.4036 151.791C60.8718 143.568 63.0304 135.006 63.7352 126.107C65.191 107.416 60.5842 88.7834 53.7142 71.5396C50.312 62.9951 46.5064 54.5142 42.2312 46.3342C41.975 45.2767 41.6325 44.2492 41.2382 43.234C51.6242 50.604 61.4714 58.7316 70.6632 67.5321C76.5678 80.689 73.2681 95.6757 71.0841 109.418C68.6871 124.547 68.3482 139.86 67.9454 155.133C67.7069 164.371 67.5202 173.596 67.3973 182.832C67.3877 183.432 68.2271 183.593 68.5095 183.099C76.4808 169.44 82.6144 154.337 85.3111 138.719C88.0726 122.748 87.5171 106.156 82.9842 90.5623C81.1286 84.164 78.6234 78.0001 75.4069 72.2041C75.8926 72.6931 76.3838 73.1647 76.8579 73.6596C90.0433 87.1718 101.608 102.161 111.396 118.244C97.8001 136.801 88.1668 158.126 83.1676 180.567C81.7267 187.03 80.6911 193.575 80.0027 200.171C79.9251 200.865 81.0277 201.281 81.4536 200.727C95.876 181.772 107.638 160.288 111.495 136.566C112.372 131.207 112.741 125.762 112.642 120.342C118.344 129.903 123.416 139.848 127.85 150.079C120.717 158.442 114.166 167.143 108.793 176.773C103.177 186.833 98.8182 197.608 95.7742 208.703C94.0317 215.061 93.0172 221.45 91.9461 227.925C91.8225 228.642 92.6727 229.189 93.2256 228.628C97.1868 224.59 100.614 219.914 103.852 215.293C107.174 210.556 110.235 205.62 112.981 200.527C118.429 190.452 122.794 179.689 125.688 168.613C127.091 163.258 128.187 157.814 128.815 152.308C129.518 153.977 130.209 155.651 130.878 157.337C133.695 164.413 136.214 171.644 138.446 178.965C135.955 183.737 132.394 187.873 129.355 192.289C126.159 196.932 123.212 201.751 120.458 206.659C114.994 216.394 110.368 226.596 106.611 237.102C104.444 243.172 102.439 249.361 101.112 255.679C100.954 256.414 101.832 256.874 102.368 256.365C110.742 248.404 117.05 238.247 122.543 228.149C127.891 218.329 132.296 207.981 135.564 197.291C137.099 192.274 138.338 187.192 139.346 182.055C139.546 182.75 139.734 183.451 139.922 184.152C140.681 189.753 140.678 195.285 140.07 200.969C139.374 207.41 138.03 213.751 136.795 220.108C134.165 233.718 131.829 247.757 131.668 261.642C131.58 269.119 132.416 276.639 134.738 283.769C135.02 284.624 136.092 284.476 136.371 283.722C144.273 262.001 149.727 238.556 147.712 215.375C147.237 209.932 146.314 204.633 144.808 199.418C143.68 193.413 142.367 187.445 140.812 181.544C150.104 199.45 164.039 214.636 178.169 228.849C182.575 233.29 187.226 237.531 191.507 242.094C191.993 242.612 192.875 242.04 192.67 241.391C189.39 230.693 183.993 220.205 177.323 211.247C170.876 202.608 162.979 195.185 154.673 188.35C149.998 184.513 145.157 180.863 140.323 177.225C140.264 177.111 140.199 176.985 140.139 176.87C139.968 176.538 139.689 176.45 139.425 176.529C138.046 171.756 136.541 167.019 134.852 162.32C133.426 158.355 131.891 154.432 130.259 150.545C138.011 155.664 143.916 163.001 150.097 169.861C157.139 177.655 165.193 184.257 173.255 190.957C177.867 194.783 182.583 198.671 186.573 203.152C186.989 203.619 187.78 203.095 187.587 202.526C184.155 192.575 177.832 183.219 170.928 175.355C163.807 167.239 155.309 160.315 145.897 154.995C140.614 152.01 134.971 149.646 129.196 147.815C129.161 147.804 129.12 147.811 129.074 147.806C125.02 138.423 120.409 129.285 115.277 120.46C118.793 123.575 122.31 126.69 126.043 129.549C130.942 133.313 135.972 136.879 141.149 140.253C146.344 143.632 151.675 146.796 157.118 149.756C162.759 152.817 168.569 155.501 174.277 158.412C180.974 161.827 186.875 166.234 192.921 170.668C193.58 171.154 194.249 170.199 193.941 169.603C187.596 157.647 177.181 148.478 166.117 140.979C160.344 137.072 154.322 133.555 148.26 130.102C142.89 127.031 137.486 123.977 131.845 121.424C125.711 118.646 119.24 116.595 112.537 115.839C109.009 110.059 105.229 104.439 101.254 98.9479C112.248 104.204 123.22 109.587 134.842 113.357C141.064 115.377 147.449 117.009 153.934 117.878C160.384 118.735 166.869 118.791 173.367 118.869C181.049 118.959 188.799 119.014 196.219 121.213C196.7 121.356 197.084 120.664 196.704 120.323C191.63 115.967 185.797 112.424 179.913 109.286C173.982 106.113 167.808 103.429 161.445 101.249C148.568 96.8225 134.942 94.2928 121.301 94.2089C114.122 94.1635 106.977 94.9136 99.9316 96.2505C99.8676 96.2111 99.798 96.189 99.734 96.1496C99.5363 96.0487 99.3457 96.0457 99.167 96.0656C91.6331 85.9721 83.3613 76.4199 74.4168 67.5351C84.8917 72.8562 96.335 76.254 108.033 77.4736C121.836 78.9106 135.344 76.349 149.095 75.5488C156.758 75.0969 165.394 74.8096 172.643 77.6917C173.392 77.9865 173.975 77.0321 173.258 76.5753C167.576 72.984 161.035 70.4607 154.706 68.2631C148.198 65.9989 141.512 64.3197 134.701 63.2135C128.156 62.1437 121.531 61.5654 114.906 61.5235C107.872 61.476 100.93 62.2808 93.9719 63.2243C86.4319 64.2512 78.7586 65.2454 71.1909 64.1387C70.9874 64.0263 70.7897 63.9253 70.5861 63.813C63.073 56.6549 55.1442 49.9586 46.8239 43.7987C45.2905 42.6617 43.74 41.548 42.178 40.4403C69.3688 49.6245 100.41 53.3482 127.708 42.6954C136.229 39.3759 144.403 34.6829 151.982 29.5718C152.543 29.1945 152.513 28.151 151.737 28.0296C137.329 25.7593 122.636 24.7679 108.106 26.4792C100.801 27.3412 93.5733 28.8596 86.5323 30.9636C78.64 33.3338 70.9533 36.4104 62.8796 38.1488C58.9925 38.9841 55.0072 39.3767 51.0382 39.2384C48.6233 39.1524 46.2224 38.8125 43.8655 38.3047C41.4971 37.8027 39.0274 37.4984 36.7855 36.5102C34.6366 35.5609 32.8495 34.0181 30.8986 32.7488C28.7729 31.3666 26.5336 30.1303 24.3514 28.8355C24.2059 28.7511 24.043 28.6612 23.8976 28.5768C30.0648 26.3298 36.6616 26.4875 43.1576 26.4505C49.8095 26.4056 56.4136 25.7902 62.9695 24.5758C76.2886 22.0977 89.0823 17.3951 101.516 12.0806C108.603 9.0531 115.607 5.86528 122.687 2.82629C123.52 2.46809 123.361 1.31685 122.436 1.27263C108.342 0.508972 93.9241 1.08815 79.9269 2.9301C66.3331 4.70852 52.9094 8.02447 40.4356 13.7952C33.4095 17.0525 26.3106 20.9281 21.5528 27.2209C18.6381 25.5503 15.7122 23.9145 12.7238 22.3546C8.6946 20.2446 4.65394 18.1405 0.276909 16.82C-0.824546 16.49 -1.31809 18.066 -0.433117 18.6241C3.00799 20.8062 6.69702 22.5116 10.3246 24.3795C13.7779 26.1633 17.1975 28.0226 20.566 29.9519C20.9965 30.1937 21.4214 30.4528 21.8463 30.712C22.6626 32.6554 23.4271 34.611 24.1457 36.5905C25.2212 42.9425 24.4647 49.6327 22.9457 55.861C20.692 65.1108 17.03 73.9716 14.33 83.0895C9.17336 100.503 5.77291 118.415 4.14752 136.498C3.22892 146.726 2.97427 156.945 3.19375 167.208C3.18088 167.999 4.24644 168.231 4.63053 167.568ZM50.6668 68.5444C54.3393 77.4425 57.5583 86.5607 59.7011 95.9599C63.638 113.241 63.8616 131.412 57.4432 148.157C53.9574 157.246 48.8801 165.62 43.7958 173.896C41.5451 156.164 39.4902 138.388 38.7969 120.518C38.441 111.312 38.4081 102.084 38.9242 92.8769C39.4458 83.6523 40.7491 74.5893 42.0804 65.4683C42.738 60.9483 43.3108 56.1238 42.9964 51.468C45.6222 57.1341 48.2824 62.7824 50.6668 68.5444ZM91.896 182.568C88.8484 187.584 85.5327 192.42 82.0539 197.137C84.7362 175.053 91.9239 153.498 102.934 134.159C105.571 129.53 108.429 125.018 111.473 120.642C110.754 142.697 103.34 163.731 91.896 182.568ZM119.694 182.019C115.633 192.581 110.347 202.717 104.024 212.113C100.868 216.808 97.3097 221.145 93.7745 225.528C94.4505 220.65 95.5944 215.777 96.8267 211.047C98.2684 205.541 100.029 200.116 102.12 194.825C106.252 184.343 111.567 174.293 117.967 165.017C121.039 160.554 124.379 156.243 128.04 152.245C125.959 162.363 123.415 172.344 119.694 182.019ZM114.059 239.664C110.876 244.474 107.468 249.271 103.374 253.362C106.358 243.415 109.506 233.616 113.754 224.089C118.305 213.883 123.721 204.057 129.942 194.772C132.763 190.555 136.02 186.505 138.602 182.107C133.767 202.503 125.631 222.169 114.059 239.664ZM163.729 198.237C171.61 205.77 178.378 214.242 183.533 223.869C186.166 228.791 188.242 233.9 190.249 239.073C186.988 236.058 183.852 232.891 180.71 229.77C176.914 226.001 173.168 222.191 169.526 218.27C162.129 210.326 155.211 201.844 149.273 192.754C146.539 188.566 143.977 184.232 141.627 179.802C149.233 185.649 156.794 191.607 163.729 198.237ZM146.591 230.469C146.059 242.064 143.875 253.528 140.768 264.699C139.251 270.143 137.489 275.51 135.624 280.843C131.962 268.282 133.329 254.789 135.011 241.989C135.941 234.875 137.109 227.798 138.484 220.759C139.724 214.413 141.098 208.072 141.829 201.641C142.144 198.822 142.332 195.924 142.306 193.035C143.592 198.247 144.711 203.474 145.657 208.732C146.576 215.934 146.918 223.202 146.591 230.469ZM178.249 187.285C180.942 191.451 183.112 195.814 185.185 200.272C177.905 193.733 170.341 187.574 162.947 181.152C158.912 177.652 155.087 173.941 151.519 169.967C148.155 166.221 144.947 162.352 141.498 158.693C138.359 155.353 134.981 152.253 131.218 149.672C150.384 156.781 167.142 170.144 178.249 187.285ZM145.519 129.836C157.079 136.439 168.837 143.172 178.576 152.356C183.317 156.827 187.499 161.818 190.892 167.364C186.474 164.25 181.955 161.305 177.215 158.692C171.66 155.629 165.88 153.003 160.303 149.981C149.306 144.016 138.759 137.15 128.843 129.537C123.506 125.433 118.123 121.324 113.195 116.718C124.848 118.411 135.425 124.071 145.519 129.836ZM177.09 109.338C183.071 112.383 188.605 116.052 194.116 119.819C188.527 118.937 182.855 118.46 177.199 118.237C170.52 117.976 163.826 117.912 157.192 117.063C144.2 115.395 131.757 111.049 119.828 105.783C113.724 103.092 107.715 100.192 101.769 97.187C127.397 93.6529 154.006 97.6085 177.09 109.338ZM110.832 63.4862C124.51 63.3043 137.949 65.1907 151.056 69.1064C157.01 70.8885 162.608 73.3044 168.253 75.7831C163.353 75.0816 158.484 74.5815 153.455 74.6721C146.62 74.7832 139.815 75.4879 133.008 76.0485C126.258 76.6083 119.49 77.0472 112.717 76.6325C105.689 76.2042 98.7031 74.9563 91.95 72.9783C85.336 71.0444 78.9891 68.3337 72.9298 65.0823C85.4233 67.0806 98.2682 63.6577 110.832 63.4862ZM84.9708 112.422C85.9862 127.963 83.4523 143.671 78.4515 158.406C75.876 165.994 72.54 173.264 68.6924 180.276C69.3524 164.797 69.6254 149.3 70.5049 133.824C70.9567 125.898 71.6742 117.98 72.8951 110.135C74.0738 102.603 75.6452 95.0701 75.8349 87.425C75.9573 82.6013 75.4482 77.6253 74.0539 72.9621C80.3052 85.2431 84.0647 98.6389 84.9708 112.422ZM81.0062 34.1126C95.593 29.1935 110.674 26.3552 126.094 26.419C133.948 26.4488 141.697 27.3164 149.315 29.1665C142.833 32.9985 136.54 37.0815 129.579 40.0726C122.745 42.9984 115.536 45.001 108.2 46.1692C93.6598 48.4805 78.8244 47.5776 64.4433 44.7417C58.9201 43.6513 53.4794 42.2425 48.0775 40.7119C59.1997 41.6054 70.4441 37.6752 81.0062 34.1126ZM39.2379 16.287C45.4238 13.2611 51.9012 10.8827 58.5296 9.02116C71.7922 5.30958 85.5559 3.71906 99.2809 3.14996C105.872 2.87515 112.444 2.92939 119.027 2.89117C95.8879 14.4986 70.6815 24.7807 44.4888 24.8911C37.6403 24.9217 30.6072 24.5108 24.0228 26.6543C28.2145 22.1347 33.7232 18.9802 39.2379 16.287ZM9.35251 111.223C11.0588 102.067 13.2396 92.9857 15.8786 84.059C18.6005 74.8427 22.3135 65.912 24.6123 56.5807C25.6711 52.2741 26.3294 47.8117 26.3186 43.4053C30.0732 56.4262 31.5255 70.0287 30.8242 83.6567C29.8384 102.526 24.794 121.028 17.483 138.409C13.7574 147.259 9.42768 155.841 4.71419 164.216C4.5076 146.471 6.09601 128.654 9.35251 111.223Z" fill="#5C8692"/>
<path d="M4.63053 167.568C14.1293 151.014 22.2013 133.53 27.2116 115.075C32.1835 96.7703 34.0245 77.502 31.2748 58.6928C30.1789 51.2048 28.3683 43.8253 25.7127 36.7522C25.4454 35.2795 25.0973 33.8196 24.6341 32.3902C29.226 35.1379 33.7275 38.0486 38.1439 41.0758C41.9494 48.2071 41.4177 56.6532 40.3412 64.4958C39.1604 73.2051 37.9903 81.8508 37.5323 90.6361C36.585 108.905 37.6529 127.162 39.2571 145.359C40.1709 155.728 41.3152 166.065 42.4078 176.413C42.4993 177.237 43.5427 177.539 44.0008 176.794C48.8793 168.683 53.7169 160.52 57.4036 151.791C60.8718 143.568 63.0304 135.006 63.7352 126.107C65.191 107.416 60.5842 88.7834 53.7142 71.5396C50.312 62.9951 46.5064 54.5142 42.2312 46.3342C41.975 45.2767 41.6325 44.2492 41.2382 43.234C51.6242 50.604 61.4714 58.7316 70.6632 67.5321C76.5678 80.689 73.2681 95.6757 71.0841 109.418C68.6871 124.547 68.3482 139.86 67.9454 155.133C67.7069 164.371 67.5202 173.596 67.3973 182.832C67.3877 183.432 68.2271 183.593 68.5095 183.099C76.4808 169.44 82.6144 154.337 85.3111 138.719C88.0726 122.748 87.5171 106.156 82.9842 90.5623C81.1286 84.164 78.6234 78.0001 75.4069 72.2041C75.8926 72.6931 76.3838 73.1647 76.8579 73.6596C90.0433 87.1718 101.608 102.161 111.396 118.244C97.8001 136.801 88.1668 158.126 83.1676 180.567C81.7267 187.03 80.6911 193.575 80.0027 200.171C79.9251 200.865 81.0277 201.281 81.4536 200.727C95.876 181.772 107.638 160.288 111.495 136.566C112.372 131.207 112.741 125.762 112.642 120.342C118.344 129.903 123.416 139.848 127.85 150.079C120.717 158.442 114.166 167.143 108.793 176.773C103.177 186.833 98.8182 197.608 95.7742 208.703C94.0317 215.061 93.0172 221.45 91.9461 227.925C91.8225 228.642 92.6727 229.189 93.2256 228.628C97.1868 224.59 100.614 219.914 103.852 215.293C107.174 210.556 110.235 205.62 112.981 200.527C118.429 190.452 122.794 179.689 125.688 168.613C127.091 163.258 128.187 157.814 128.815 152.308C129.518 153.977 130.209 155.651 130.878 157.337C133.695 164.413 136.214 171.644 138.446 178.965C135.955 183.737 132.394 187.873 129.355 192.289C126.159 196.932 123.212 201.751 120.458 206.659C114.994 216.394 110.368 226.596 106.611 237.102C104.444 243.172 102.439 249.361 101.112 255.679C100.954 256.414 101.832 256.874 102.368 256.365C110.742 248.404 117.05 238.247 122.543 228.149C127.891 218.329 132.296 207.981 135.564 197.291C137.099 192.274 138.338 187.192 139.346 182.055C139.546 182.75 139.734 183.451 139.922 184.152C140.681 189.753 140.678 195.285 140.07 200.969C139.374 207.41 138.03 213.751 136.795 220.108C134.165 233.718 131.829 247.757 131.668 261.642C131.58 269.119 132.416 276.639 134.738 283.769C135.02 284.624 136.092 284.476 136.371 283.722C144.273 262.001 149.727 238.556 147.712 215.375C147.237 209.932 146.314 204.633 144.808 199.418C143.68 193.413 142.367 187.445 140.812 181.544C150.104 199.45 164.039 214.636 178.169 228.849C182.575 233.29 187.226 237.531 191.507 242.094C191.993 242.612 192.875 242.04 192.67 241.391C189.39 230.693 183.993 220.205 177.323 211.247C170.876 202.608 162.979 195.185 154.673 188.35C149.998 184.513 145.157 180.863 140.323 177.225C140.264 177.111 140.199 176.985 140.139 176.87C139.968 176.538 139.689 176.45 139.425 176.529C138.046 171.756 136.541 167.019 134.852 162.32C133.426 158.355 131.891 154.432 130.259 150.545C138.011 155.664 143.916 163.001 150.097 169.861C157.139 177.655 165.193 184.257 173.255 190.957C177.867 194.783 182.583 198.671 186.573 203.152C186.989 203.619 187.78 203.095 187.587 202.526C184.155 192.575 177.832 183.219 170.928 175.355C163.807 167.239 155.309 160.315 145.897 154.995C140.614 152.01 134.971 149.646 129.196 147.815C129.161 147.804 129.12 147.811 129.074 147.806C125.02 138.423 120.409 129.285 115.277 120.46C118.793 123.575 122.31 126.69 126.043 129.549C130.942 133.313 135.972 136.879 141.149 140.253C146.344 143.632 151.675 146.796 157.118 149.756C162.759 152.817 168.569 155.501 174.277 158.412C180.974 161.827 186.875 166.234 192.921 170.668C193.58 171.154 194.249 170.199 193.941 169.603C187.596 157.647 177.181 148.478 166.117 140.979C160.344 137.072 154.322 133.555 148.26 130.102C142.89 127.031 137.486 123.977 131.845 121.424C125.711 118.646 119.24 116.595 112.537 115.839C109.009 110.059 105.229 104.439 101.254 98.9479C112.248 104.204 123.22 109.587 134.842 113.357C141.064 115.377 147.449 117.009 153.934 117.878C160.384 118.735 166.869 118.791 173.367 118.869C181.049 118.959 188.799 119.014 196.219 121.213C196.7 121.356 197.084 120.664 196.704 120.323C191.63 115.967 185.797 112.424 179.913 109.286C173.982 106.113 167.808 103.429 161.445 101.249C148.568 96.8225 134.942 94.2928 121.301 94.2089C114.122 94.1635 106.977 94.9136 99.9316 96.2505C99.8676 96.2111 99.798 96.189 99.734 96.1496C99.5363 96.0487 99.3457 96.0457 99.167 96.0656C91.6331 85.9721 83.3613 76.4199 74.4168 67.5351C84.8917 72.8562 96.335 76.254 108.033 77.4736C121.836 78.9106 135.344 76.349 149.095 75.5488C156.758 75.0969 165.394 74.8096 172.643 77.6917C173.392 77.9865 173.975 77.0321 173.258 76.5753C167.576 72.984 161.035 70.4607 154.706 68.2631C148.198 65.9989 141.512 64.3197 134.701 63.2135C128.156 62.1437 121.531 61.5654 114.906 61.5235C107.872 61.476 100.93 62.2808 93.9719 63.2243C86.4319 64.2512 78.7586 65.2454 71.1909 64.1387C70.9874 64.0263 70.7897 63.9253 70.5861 63.813C63.073 56.6549 55.1442 49.9586 46.8239 43.7987C45.2905 42.6617 43.74 41.548 42.178 40.4403C69.3688 49.6245 100.41 53.3482 127.708 42.6954C136.229 39.3759 144.403 34.6829 151.982 29.5718C152.543 29.1945 152.513 28.151 151.737 28.0296C137.329 25.7593 122.636 24.7679 108.106 26.4792C100.801 27.3412 93.5733 28.8596 86.5323 30.9636C78.64 33.3338 70.9533 36.4104 62.8796 38.1488C58.9925 38.9841 55.0072 39.3767 51.0382 39.2384C48.6233 39.1524 46.2224 38.8125 43.8655 38.3047C41.4971 37.8027 39.0274 37.4984 36.7855 36.5102C34.6366 35.5609 32.8495 34.0181 30.8986 32.7488C28.7729 31.3666 26.5336 30.1303 24.3514 28.8355C24.2059 28.7511 24.043 28.6612 23.8976 28.5768C30.0648 26.3298 36.6616 26.4875 43.1576 26.4505C49.8095 26.4056 56.4136 25.7902 62.9695 24.5758C76.2886 22.0977 89.0823 17.3951 101.516 12.0806C108.603 9.0531 115.607 5.86528 122.687 2.82629C123.52 2.46809 123.361 1.31685 122.436 1.27263C108.342 0.508972 93.9241 1.08815 79.9269 2.9301C66.3331 4.70852 52.9094 8.02447 40.4356 13.7952C33.4095 17.0525 26.3106 20.9281 21.5528 27.2209C18.6381 25.5503 15.7122 23.9145 12.7238 22.3546C8.6946 20.2446 4.65394 18.1405 0.276909 16.82C-0.824546 16.49 -1.31809 18.066 -0.433117 18.6241C3.00799 20.8062 6.69702 22.5116 10.3246 24.3795C13.7779 26.1633 17.1975 28.0226 20.566 29.9519C20.9965 30.1937 21.4214 30.4528 21.8463 30.712C22.6626 32.6554 23.4271 34.611 24.1457 36.5905C25.2212 42.9425 24.4647 49.6327 22.9457 55.861C20.692 65.1108 17.03 73.9716 14.33 83.0895C9.17336 100.503 5.77291 118.415 4.14752 136.498C3.22892 146.726 2.97427 156.945 3.19375 167.208C3.18088 167.999 4.24644 168.231 4.63053 167.568ZM50.6668 68.5444C54.3393 77.4425 57.5583 86.5607 59.7011 95.9599C63.638 113.241 63.8616 131.412 57.4432 148.157C53.9574 157.246 48.8801 165.62 43.7958 173.896C41.5451 156.164 39.4902 138.388 38.7969 120.518C38.441 111.312 38.4081 102.084 38.9242 92.8769C39.4458 83.6523 40.7491 74.5893 42.0804 65.4683C42.738 60.9483 43.3108 56.1238 42.9964 51.468C45.6222 57.1341 48.2824 62.7824 50.6668 68.5444ZM91.896 182.568C88.8484 187.584 85.5327 192.42 82.0539 197.137C84.7362 175.053 91.9239 153.498 102.934 134.159C105.571 129.53 108.429 125.018 111.473 120.642C110.754 142.697 103.34 163.731 91.896 182.568ZM119.694 182.019C115.633 192.581 110.347 202.717 104.024 212.113C100.868 216.808 97.3097 221.145 93.7745 225.528C94.4505 220.65 95.5944 215.777 96.8267 211.047C98.2684 205.541 100.029 200.116 102.12 194.825C106.252 184.343 111.567 174.293 117.967 165.017C121.039 160.554 124.379 156.243 128.04 152.245C125.959 162.363 123.415 172.344 119.694 182.019ZM114.059 239.664C110.876 244.474 107.468 249.271 103.374 253.362C106.358 243.415 109.506 233.616 113.754 224.089C118.305 213.883 123.721 204.057 129.942 194.772C132.763 190.555 136.02 186.505 138.602 182.107C133.767 202.503 125.631 222.169 114.059 239.664ZM163.729 198.237C171.61 205.77 178.378 214.242 183.533 223.869C186.166 228.791 188.242 233.9 190.249 239.073C186.988 236.058 183.852 232.891 180.71 229.77C176.914 226.001 173.168 222.191 169.526 218.27C162.129 210.326 155.211 201.844 149.273 192.754C146.539 188.566 143.977 184.232 141.627 179.802C149.233 185.649 156.794 191.607 163.729 198.237ZM146.591 230.469C146.059 242.064 143.875 253.528 140.768 264.699C139.251 270.143 137.489 275.51 135.624 280.843C131.962 268.282 133.329 254.789 135.011 241.989C135.941 234.875 137.109 227.798 138.484 220.759C139.724 214.413 141.098 208.072 141.829 201.641C142.144 198.822 142.332 195.924 142.306 193.035C143.592 198.247 144.711 203.474 145.657 208.732C146.576 215.934 146.918 223.202 146.591 230.469ZM178.249 187.285C180.942 191.451 183.112 195.814 185.185 200.272C177.905 193.733 170.341 187.574 162.947 181.152C158.912 177.652 155.087 173.941 151.519 169.967C148.155 166.221 144.947 162.352 141.498 158.693C138.359 155.353 134.981 152.253 131.218 149.672C150.384 156.781 167.142 170.144 178.249 187.285ZM145.519 129.836C157.079 136.439 168.837 143.172 178.576 152.356C183.317 156.827 187.499 161.818 190.892 167.364C186.474 164.25 181.955 161.305 177.215 158.692C171.66 155.629 165.88 153.003 160.303 149.981C149.306 144.016 138.759 137.15 128.843 129.537C123.506 125.433 118.123 121.324 113.195 116.718C124.848 118.411 135.425 124.071 145.519 129.836ZM177.09 109.338C183.071 112.383 188.605 116.052 194.116 119.819C188.527 118.937 182.855 118.46 177.199 118.237C170.52 117.976 163.826 117.912 157.192 117.063C144.2 115.395 131.757 111.049 119.828 105.783C113.724 103.092 107.715 100.192 101.769 97.187C127.397 93.6529 154.006 97.6085 177.09 109.338ZM110.832 63.4862C124.51 63.3043 137.949 65.1907 151.056 69.1064C157.01 70.8885 162.608 73.3044 168.253 75.7831C163.353 75.0816 158.484 74.5815 153.455 74.6721C146.62 74.7832 139.815 75.4879 133.008 76.0485C126.258 76.6083 119.49 77.0472 112.717 76.6325C105.689 76.2042 98.7031 74.9563 91.95 72.9783C85.336 71.0444 78.9891 68.3337 72.9298 65.0823C85.4233 67.0806 98.2682 63.6577 110.832 63.4862ZM84.9708 112.422C85.9862 127.963 83.4523 143.671 78.4515 158.406C75.876 165.994 72.54 173.264 68.6924 180.276C69.3524 164.797 69.6254 149.3 70.5049 133.824C70.9567 125.898 71.6742 117.98 72.8951 110.135C74.0738 102.603 75.6452 95.0701 75.8349 87.425C75.9573 82.6013 75.4482 77.6253 74.0539 72.9621C80.3052 85.2431 84.0647 98.6389 84.9708 112.422ZM81.0062 34.1126C95.593 29.1935 110.674 26.3552 126.094 26.419C133.948 26.4488 141.697 27.3164 149.315 29.1665C142.833 32.9985 136.54 37.0815 129.579 40.0726C122.745 42.9984 115.536 45.001 108.2 46.1692C93.6598 48.4805 78.8244 47.5776 64.4433 44.7417C58.9201 43.6513 53.4794 42.2425 48.0775 40.7119C59.1997 41.6054 70.4441 37.6752 81.0062 34.1126ZM39.2379 16.287C45.4238 13.2611 51.9012 10.8827 58.5296 9.02116C71.7922 5.30958 85.5559 3.71906 99.2809 3.14996C105.872 2.87515 112.444 2.92939 119.027 2.89117C95.8879 14.4986 70.6815 24.7807 44.4888 24.8911C37.6403 24.9217 30.6072 24.5108 24.0228 26.6543C28.2145 22.1347 33.7232 18.9802 39.2379 16.287ZM9.35251 111.223C11.0588 102.067 13.2396 92.9857 15.8786 84.059C18.6005 74.8427 22.3135 65.912 24.6123 56.5807C25.6711 52.2741 26.3294 47.8117 26.3186 43.4053C30.0732 56.4262 31.5255 70.0287 30.8242 83.6567C29.8384 102.526 24.794 121.028 17.483 138.409C13.7574 147.259 9.42768 155.841 4.71419 164.216C4.5076 146.471 6.09601 128.654 9.35251 111.223Z" stroke="#5C8692" mask="url(#path-1-outside-1_214_20)"/>
</g>
</svg>
