<svg width="200" height="286" viewBox="0 0 200 286" fill="none" xmlns="http://www.w3.org/2000/svg">
<g opacity="0.38">
<mask id="path-1-outside-1_214_18" maskUnits="userSpaceOnUse" x="-56.3477" y="-29.2191" width="314.623" height="359.21" fill="black">
<rect fill="white" x="-56.3477" y="-29.2191" width="314.623" height="359.21"/>
<path d="M193.597 118.175C184.099 134.729 176.027 152.213 171.016 170.668C166.045 188.973 164.203 208.241 166.953 227.05C168.049 234.538 169.86 241.918 172.515 248.991C172.783 250.463 173.131 251.923 173.594 253.353C169.002 250.605 164.501 247.694 160.084 244.667C156.279 237.536 156.81 229.09 157.887 221.247C159.068 212.538 160.238 203.892 160.696 195.107C161.643 176.838 160.575 158.581 158.971 140.384C158.057 130.015 156.913 119.678 155.82 109.329C155.729 108.506 154.685 108.204 154.227 108.949C149.349 117.06 144.511 125.223 140.824 133.952C137.356 142.175 135.198 150.737 134.493 159.636C133.037 178.327 137.644 196.96 144.514 214.203C147.916 222.748 151.722 231.229 155.997 239.409C156.253 240.466 156.596 241.494 156.99 242.509C146.604 235.139 136.757 227.011 127.565 218.211C121.66 205.054 124.96 190.067 127.144 176.325C129.541 161.196 129.88 145.883 130.283 130.61C130.521 121.372 130.708 112.147 130.831 102.911C130.84 102.311 130.001 102.15 129.719 102.644C121.747 116.303 115.614 131.406 112.917 147.024C110.155 162.995 110.711 179.587 115.244 195.181C117.099 201.579 119.605 207.743 122.821 213.539C122.335 213.05 121.844 212.578 121.37 212.083C108.185 198.571 96.6203 183.582 86.8319 167.499C100.428 148.942 110.061 127.617 115.06 105.176C116.501 98.7126 117.537 92.1684 118.225 85.5715C118.303 84.8782 117.2 84.4617 116.774 85.0158C102.352 103.971 90.5898 125.455 86.7333 149.176C85.8556 154.536 85.4872 159.98 85.5862 165.401C79.8841 155.84 74.8122 145.895 70.3776 135.664C77.5108 127.301 84.0622 118.6 89.4351 108.97C95.0508 98.9098 99.4098 88.1354 102.454 77.0399C104.196 70.6814 105.211 64.2932 106.282 57.8176C106.405 57.1006 105.555 56.5535 105.002 57.1153C101.041 61.1528 97.6138 65.8285 94.3763 70.4496C91.0536 75.1872 87.9934 80.1229 85.247 85.2155C79.799 95.2906 75.4341 106.053 72.54 117.129C71.1367 122.485 70.0407 127.929 69.4132 133.435C68.7102 131.766 68.0187 130.092 67.3501 128.406C64.5328 121.33 62.0138 114.099 59.7824 106.778C62.2731 102.006 65.8345 97.8703 68.8726 93.4541C72.0694 88.8105 75.0157 83.9918 77.7702 79.0837C83.2341 69.3487 87.8605 59.1473 91.6166 48.6412C93.7844 42.5707 95.789 36.3815 97.1162 30.0637C97.2742 29.3289 96.3963 28.8687 95.86 29.3783C87.4858 37.3388 81.1784 47.4955 75.6846 57.5943C70.3372 67.414 65.9323 77.7623 62.6635 88.4515C61.1289 93.4688 59.8896 98.551 58.882 103.688C58.6824 102.993 58.4943 102.292 58.3062 101.591C57.5465 95.9896 57.55 90.4582 58.1578 84.7738C58.854 78.3326 60.1983 71.9914 61.4327 65.6346C64.063 52.0246 66.3991 37.9863 66.5601 24.1008C66.6481 16.6244 65.8116 9.10378 63.4902 1.97395C63.2077 1.11865 62.1356 1.26693 61.8566 2.02082C53.955 23.7422 48.501 47.1871 50.5162 70.3675C50.9909 75.8112 51.9141 81.1099 53.4196 86.3252C54.5483 92.3304 55.8613 98.2982 57.416 104.199C48.1237 86.2928 34.1891 71.1072 20.0591 56.8934C15.6533 52.4529 11.0017 48.2121 6.72131 43.6487C6.2353 43.1309 5.35341 43.7032 5.55814 44.352C8.83807 55.0497 14.2346 65.5377 20.9049 74.4961C27.3516 83.1346 35.2493 90.5581 43.5552 97.3932C48.2304 101.23 53.0707 104.88 57.9051 108.518C57.9643 108.632 58.0294 108.758 58.0887 108.873C58.2604 109.205 58.5388 109.293 58.8034 109.214C60.1818 113.987 61.6868 118.724 63.3761 123.423C64.8018 127.388 66.3367 131.311 67.9693 135.197C60.2169 130.079 54.3125 122.742 48.1314 115.882C41.0893 108.088 33.0347 101.486 24.9731 94.7857C20.3615 90.9596 15.6452 87.0716 11.6546 82.5904C11.2386 82.1235 10.4484 82.6484 10.6406 83.2166C14.0725 93.168 20.3957 102.524 27.3001 110.388C34.4215 118.504 42.9191 125.428 52.3315 130.748C57.6135 133.733 63.2572 136.097 69.0325 137.927C69.0673 137.938 69.1076 137.932 69.1539 137.937C73.2079 147.32 77.819 156.458 82.9514 165.283C79.4347 162.168 75.918 159.053 72.1852 156.194C67.2857 152.43 62.2559 148.864 57.0785 145.49C51.8837 142.111 46.5531 138.947 41.1097 135.987C35.4686 132.925 29.6591 130.241 23.9507 127.331C17.254 123.916 11.3529 119.509 5.30712 115.075C4.64828 114.589 3.97923 115.544 4.28722 116.14C10.6325 128.096 21.0475 137.265 32.1108 144.764C37.8841 148.671 43.9065 152.188 49.9684 155.641C55.3383 158.712 60.7425 161.766 66.3828 164.319C72.5169 167.097 78.988 169.148 85.6907 169.904C89.2188 175.684 92.9989 181.304 96.9737 186.795C85.9799 181.539 75.0076 176.156 63.3862 172.386C57.1638 170.366 50.7789 168.734 44.2942 167.865C37.8443 167.008 31.3585 166.952 24.861 166.874C17.1794 166.784 9.42904 166.729 2.00893 164.53C1.52777 164.387 1.14404 165.079 1.52381 165.42C6.59843 169.776 12.4306 173.319 18.3152 176.457C24.2465 179.63 30.4198 182.314 36.7829 184.494C49.6601 188.92 63.2865 191.45 76.9275 191.534C84.106 191.579 91.2512 190.829 98.2964 189.492C98.3604 189.532 98.43 189.554 98.4941 189.593C98.6917 189.694 98.8823 189.697 99.0611 189.677C106.595 199.771 114.867 209.323 123.811 218.208C113.336 212.887 101.893 209.489 90.195 208.269C76.3921 206.832 62.8835 209.394 49.1327 210.194C41.4698 210.646 32.8345 210.933 25.5845 208.051C24.8358 207.756 24.2534 208.711 24.9696 209.168C30.6522 212.759 37.1929 215.282 43.5216 217.48C50.0302 219.744 56.7159 221.423 63.5271 222.529C70.0722 223.599 76.6975 224.178 83.3216 224.219C90.3559 224.267 97.2982 223.462 104.256 222.519C111.796 221.492 119.469 220.497 127.037 221.604C127.241 221.717 127.438 221.818 127.642 221.93C135.155 229.088 143.084 235.784 151.404 241.944C152.938 243.081 154.488 244.195 156.05 245.303C128.859 236.118 97.8181 232.395 70.5203 243.048C61.9993 246.367 53.8253 251.06 46.2457 256.171C45.6847 256.548 45.7155 257.592 46.4909 257.713C60.8993 259.984 75.5915 260.975 90.1217 259.264C97.4271 258.402 104.655 256.883 111.696 254.779C119.588 252.409 127.275 249.332 135.348 247.594C139.236 246.759 143.221 246.366 147.19 246.505C149.605 246.59 152.006 246.93 154.363 247.438C156.731 247.94 159.201 248.245 161.443 249.233C163.591 250.182 165.378 251.725 167.329 252.994C169.455 254.376 171.694 255.613 173.877 256.907C174.022 256.992 174.185 257.082 174.33 257.166C168.163 259.413 161.566 259.255 155.07 259.292C148.418 259.337 141.814 259.953 135.258 261.167C121.939 263.645 109.146 268.348 96.7122 273.662C89.6254 276.69 82.6215 279.878 75.5406 282.917C74.7079 283.275 74.8672 284.426 75.7917 284.47C89.8862 285.234 104.304 284.655 118.301 282.813C131.895 281.034 145.319 277.718 157.792 271.948C164.818 268.69 171.917 264.815 176.675 258.522C179.59 260.193 182.516 261.828 185.504 263.388C189.533 265.498 193.574 267.602 197.951 268.923C199.053 269.253 199.546 267.677 198.661 267.119C195.22 264.937 191.531 263.231 187.903 261.363C184.45 259.58 181.031 257.72 177.662 255.791C177.232 255.549 176.807 255.29 176.382 255.031C175.565 253.088 174.801 251.132 174.082 249.152C173.007 242.8 173.763 236.11 175.282 229.882C177.536 220.632 181.198 211.771 183.898 202.653C189.055 185.24 192.455 167.328 194.081 149.245C194.999 139.017 195.254 128.798 195.034 118.535C195.047 117.744 193.982 117.512 193.597 118.175ZM147.561 217.199C143.889 208.3 140.67 199.182 138.527 189.783C134.59 172.502 134.366 154.331 140.785 137.586C144.271 128.497 149.348 120.123 154.432 111.847C156.683 129.579 158.738 147.355 159.431 165.225C159.787 174.431 159.82 183.659 159.304 192.866C158.782 202.091 157.479 211.154 156.148 220.275C155.49 224.795 154.917 229.619 155.232 234.275C152.606 228.609 149.946 222.96 147.561 217.199ZM106.332 103.175C109.38 98.1588 112.695 93.3232 116.174 88.6064C113.492 110.69 106.304 132.245 95.2937 151.584C92.6568 156.213 89.799 160.725 86.7546 165.101C87.4739 143.046 94.8878 122.012 106.332 103.175ZM78.5338 103.724C82.5953 93.1619 87.8808 83.0258 94.2038 73.6302C97.3595 68.9353 100.918 64.598 104.454 60.2148C103.777 65.0927 102.634 69.9659 101.401 74.6962C99.9596 80.2024 98.1993 85.6267 96.108 90.9174C91.9762 101.4 86.6607 111.45 80.2611 120.726C77.189 125.189 73.8492 129.5 70.1879 133.498C72.2686 123.38 74.8131 113.399 78.5338 103.724ZM84.1687 46.0792C87.3519 41.2686 90.7604 36.4721 94.8537 32.3807C91.8699 42.3275 88.7224 52.1268 84.4743 61.6537C79.9231 71.8598 74.5066 81.6864 68.2861 90.9709C65.4649 95.1879 62.2084 99.2382 59.6263 103.636C64.4613 83.2401 72.5974 63.5744 84.1687 46.0792ZM34.4995 87.5064C26.6177 79.973 19.8498 71.5006 14.6954 61.8742C12.0619 56.9523 9.98616 51.8434 7.97889 46.67C11.2402 49.6852 14.3765 52.8522 17.5179 55.973C21.3145 59.7418 25.0596 63.5517 28.7022 67.4726C36.0985 75.4168 43.0167 83.8985 48.9553 92.9886C51.689 97.1766 54.2513 101.511 56.6013 105.941C48.9953 100.094 41.4342 94.1364 34.4995 87.5064ZM51.6375 55.2741C52.1688 43.6788 54.3534 32.2151 57.4599 21.0437C58.9775 15.5999 60.7386 10.2332 62.6041 4.8996C66.2662 17.4605 64.899 30.9541 63.2168 43.7543C62.2868 50.8681 61.1195 57.9449 59.7438 64.9844C58.5035 71.3298 57.1304 77.6713 56.3994 84.1015C56.0836 86.9208 55.8959 89.819 55.9218 92.7083C54.6359 87.4956 53.5172 82.269 52.5714 77.011C51.6524 69.8088 51.31 62.5406 51.6375 55.2741ZM19.9793 98.4576C17.2863 94.2921 15.1163 89.9286 13.0432 85.4714C20.3231 92.0099 27.8869 98.1693 35.2808 104.591C39.3165 108.091 43.1412 111.801 46.7094 115.775C50.0726 119.522 53.2815 123.391 56.7301 127.05C59.8686 130.39 63.2465 133.49 67.0104 136.071C47.8445 128.961 31.0865 115.599 19.9793 98.4576ZM52.7091 155.907C41.1493 149.304 29.3914 142.571 19.6518 133.387C14.9106 128.916 10.7286 123.925 7.3364 118.379C11.7539 121.493 16.2732 124.438 21.0135 127.051C26.568 130.113 32.3478 132.74 37.9249 135.762C48.9221 141.727 59.469 148.593 69.3846 156.206C74.7216 160.31 80.1049 164.419 85.0326 169.025C73.3804 167.332 62.8029 161.672 52.7091 155.907ZM21.1384 176.404C15.1568 173.36 9.62329 169.691 4.11164 165.924C9.70144 166.806 15.3726 167.283 21.029 167.506C27.7079 167.767 34.4016 167.831 41.0363 168.68C54.0279 170.348 66.4709 174.694 78.4004 179.96C84.5044 182.651 90.513 185.551 96.4595 188.556C70.8308 192.09 44.2216 188.134 21.1384 176.404ZM87.3963 222.257C73.7183 222.439 60.2792 220.552 47.1719 216.636C41.2182 214.854 35.6201 212.439 29.9749 209.96C34.8752 210.661 39.744 211.161 44.7726 211.071C51.6085 210.96 58.4135 210.255 65.2204 209.694C71.9696 209.135 78.7377 208.696 85.511 209.11C92.5386 209.539 99.5249 210.787 106.278 212.765C112.892 214.699 119.239 217.409 125.298 220.661C112.805 218.662 99.9599 222.085 87.3963 222.257ZM113.257 173.321C112.242 157.78 114.776 142.071 119.777 127.337C122.352 119.749 125.688 112.479 129.536 105.467C128.876 120.946 128.603 136.443 127.723 151.919C127.271 159.845 126.554 167.763 125.333 175.608C124.154 183.14 122.583 190.673 122.393 198.318C122.271 203.142 122.78 208.118 124.174 212.781C117.923 200.5 114.163 187.104 113.257 173.321ZM117.222 251.63C102.635 256.549 87.5535 259.388 72.1342 259.324C64.2802 259.294 56.5308 258.426 48.9131 256.576C55.3947 252.744 61.6883 248.661 68.6486 245.67C75.4826 242.745 82.6924 240.742 90.0285 239.574C104.568 237.262 119.404 238.165 133.785 241.001C139.308 242.092 144.749 243.5 150.151 245.031C139.028 244.138 127.784 248.068 117.222 251.63ZM158.99 269.456C152.804 272.482 146.327 274.86 139.698 276.722C126.436 280.433 112.672 282.024 98.9472 282.593C92.356 282.868 85.7836 282.814 79.2009 282.852C102.34 271.244 127.547 260.962 153.739 260.852C160.588 260.821 167.621 261.232 174.205 259.089C170.013 263.608 164.505 266.763 158.99 269.456ZM188.876 174.52C187.169 183.676 184.988 192.757 182.349 201.684C179.628 210.9 175.915 219.831 173.616 229.162C172.557 233.469 171.899 237.931 171.909 242.338C168.155 229.317 166.703 215.714 167.404 202.086C168.39 183.217 173.434 164.715 180.745 147.334C184.471 138.484 188.8 129.902 193.514 121.527C193.72 139.272 192.132 157.089 188.876 174.52Z"/>
</mask>
<path d="M193.597 118.175C184.099 134.729 176.027 152.213 171.016 170.668C166.045 188.973 164.203 208.241 166.953 227.05C168.049 234.538 169.86 241.918 172.515 248.991C172.783 250.463 173.131 251.923 173.594 253.353C169.002 250.605 164.501 247.694 160.084 244.667C156.279 237.536 156.81 229.09 157.887 221.247C159.068 212.538 160.238 203.892 160.696 195.107C161.643 176.838 160.575 158.581 158.971 140.384C158.057 130.015 156.913 119.678 155.82 109.329C155.729 108.506 154.685 108.204 154.227 108.949C149.349 117.06 144.511 125.223 140.824 133.952C137.356 142.175 135.198 150.737 134.493 159.636C133.037 178.327 137.644 196.96 144.514 214.203C147.916 222.748 151.722 231.229 155.997 239.409C156.253 240.466 156.596 241.494 156.99 242.509C146.604 235.139 136.757 227.011 127.565 218.211C121.66 205.054 124.96 190.067 127.144 176.325C129.541 161.196 129.88 145.883 130.283 130.61C130.521 121.372 130.708 112.147 130.831 102.911C130.84 102.311 130.001 102.15 129.719 102.644C121.747 116.303 115.614 131.406 112.917 147.024C110.155 162.995 110.711 179.587 115.244 195.181C117.099 201.579 119.605 207.743 122.821 213.539C122.335 213.05 121.844 212.578 121.37 212.083C108.185 198.571 96.6203 183.582 86.8319 167.499C100.428 148.942 110.061 127.617 115.06 105.176C116.501 98.7126 117.537 92.1684 118.225 85.5715C118.303 84.8782 117.2 84.4617 116.774 85.0158C102.352 103.971 90.5898 125.455 86.7333 149.176C85.8556 154.536 85.4872 159.98 85.5862 165.401C79.8841 155.84 74.8122 145.895 70.3776 135.664C77.5108 127.301 84.0622 118.6 89.4351 108.97C95.0508 98.9098 99.4098 88.1354 102.454 77.0399C104.196 70.6814 105.211 64.2932 106.282 57.8176C106.405 57.1006 105.555 56.5535 105.002 57.1153C101.041 61.1528 97.6138 65.8285 94.3763 70.4496C91.0536 75.1872 87.9934 80.1229 85.247 85.2155C79.799 95.2906 75.4341 106.053 72.54 117.129C71.1367 122.485 70.0407 127.929 69.4132 133.435C68.7102 131.766 68.0187 130.092 67.3501 128.406C64.5328 121.33 62.0138 114.099 59.7824 106.778C62.2731 102.006 65.8345 97.8703 68.8726 93.4541C72.0694 88.8105 75.0157 83.9918 77.7702 79.0837C83.2341 69.3487 87.8605 59.1473 91.6166 48.6412C93.7844 42.5707 95.789 36.3815 97.1162 30.0637C97.2742 29.3289 96.3963 28.8687 95.86 29.3783C87.4858 37.3388 81.1784 47.4955 75.6846 57.5943C70.3372 67.414 65.9323 77.7623 62.6635 88.4515C61.1289 93.4688 59.8896 98.551 58.882 103.688C58.6824 102.993 58.4943 102.292 58.3062 101.591C57.5465 95.9896 57.55 90.4582 58.1578 84.7738C58.854 78.3326 60.1983 71.9914 61.4327 65.6346C64.063 52.0246 66.3991 37.9863 66.5601 24.1008C66.6481 16.6244 65.8116 9.10378 63.4902 1.97395C63.2077 1.11865 62.1356 1.26693 61.8566 2.02082C53.955 23.7422 48.501 47.1871 50.5162 70.3675C50.9909 75.8112 51.9141 81.1099 53.4196 86.3252C54.5483 92.3304 55.8613 98.2982 57.416 104.199C48.1237 86.2928 34.1891 71.1072 20.0591 56.8934C15.6533 52.4529 11.0017 48.2121 6.72131 43.6487C6.2353 43.1309 5.35341 43.7032 5.55814 44.352C8.83807 55.0497 14.2346 65.5377 20.9049 74.4961C27.3516 83.1346 35.2493 90.5581 43.5552 97.3932C48.2304 101.23 53.0707 104.88 57.9051 108.518C57.9643 108.632 58.0294 108.758 58.0887 108.873C58.2604 109.205 58.5388 109.293 58.8034 109.214C60.1818 113.987 61.6868 118.724 63.3761 123.423C64.8018 127.388 66.3367 131.311 67.9693 135.197C60.2169 130.079 54.3125 122.742 48.1314 115.882C41.0893 108.088 33.0347 101.486 24.9731 94.7857C20.3615 90.9596 15.6452 87.0716 11.6546 82.5904C11.2386 82.1235 10.4484 82.6484 10.6406 83.2166C14.0725 93.168 20.3957 102.524 27.3001 110.388C34.4215 118.504 42.9191 125.428 52.3315 130.748C57.6135 133.733 63.2572 136.097 69.0325 137.927C69.0673 137.938 69.1076 137.932 69.1539 137.937C73.2079 147.32 77.819 156.458 82.9514 165.283C79.4347 162.168 75.918 159.053 72.1852 156.194C67.2857 152.43 62.2559 148.864 57.0785 145.49C51.8837 142.111 46.5531 138.947 41.1097 135.987C35.4686 132.925 29.6591 130.241 23.9507 127.331C17.254 123.916 11.3529 119.509 5.30712 115.075C4.64828 114.589 3.97923 115.544 4.28722 116.14C10.6325 128.096 21.0475 137.265 32.1108 144.764C37.8841 148.671 43.9065 152.188 49.9684 155.641C55.3383 158.712 60.7425 161.766 66.3828 164.319C72.5169 167.097 78.988 169.148 85.6907 169.904C89.2188 175.684 92.9989 181.304 96.9737 186.795C85.9799 181.539 75.0076 176.156 63.3862 172.386C57.1638 170.366 50.7789 168.734 44.2942 167.865C37.8443 167.008 31.3585 166.952 24.861 166.874C17.1794 166.784 9.42904 166.729 2.00893 164.53C1.52777 164.387 1.14404 165.079 1.52381 165.42C6.59843 169.776 12.4306 173.319 18.3152 176.457C24.2465 179.63 30.4198 182.314 36.7829 184.494C49.6601 188.92 63.2865 191.45 76.9275 191.534C84.106 191.579 91.2512 190.829 98.2964 189.492C98.3604 189.532 98.43 189.554 98.4941 189.593C98.6917 189.694 98.8823 189.697 99.0611 189.677C106.595 199.771 114.867 209.323 123.811 218.208C113.336 212.887 101.893 209.489 90.195 208.269C76.3921 206.832 62.8835 209.394 49.1327 210.194C41.4698 210.646 32.8345 210.933 25.5845 208.051C24.8358 207.756 24.2534 208.711 24.9696 209.168C30.6522 212.759 37.1929 215.282 43.5216 217.48C50.0302 219.744 56.7159 221.423 63.5271 222.529C70.0722 223.599 76.6975 224.178 83.3216 224.219C90.3559 224.267 97.2982 223.462 104.256 222.519C111.796 221.492 119.469 220.497 127.037 221.604C127.241 221.717 127.438 221.818 127.642 221.93C135.155 229.088 143.084 235.784 151.404 241.944C152.938 243.081 154.488 244.195 156.05 245.303C128.859 236.118 97.8181 232.395 70.5203 243.048C61.9993 246.367 53.8253 251.06 46.2457 256.171C45.6847 256.548 45.7155 257.592 46.4909 257.713C60.8993 259.984 75.5915 260.975 90.1217 259.264C97.4271 258.402 104.655 256.883 111.696 254.779C119.588 252.409 127.275 249.332 135.348 247.594C139.236 246.759 143.221 246.366 147.19 246.505C149.605 246.59 152.006 246.93 154.363 247.438C156.731 247.94 159.201 248.245 161.443 249.233C163.591 250.182 165.378 251.725 167.329 252.994C169.455 254.376 171.694 255.613 173.877 256.907C174.022 256.992 174.185 257.082 174.33 257.166C168.163 259.413 161.566 259.255 155.07 259.292C148.418 259.337 141.814 259.953 135.258 261.167C121.939 263.645 109.146 268.348 96.7122 273.662C89.6254 276.69 82.6215 279.878 75.5406 282.917C74.7079 283.275 74.8672 284.426 75.7917 284.47C89.8862 285.234 104.304 284.655 118.301 282.813C131.895 281.034 145.319 277.718 157.792 271.948C164.818 268.69 171.917 264.815 176.675 258.522C179.59 260.193 182.516 261.828 185.504 263.388C189.533 265.498 193.574 267.602 197.951 268.923C199.053 269.253 199.546 267.677 198.661 267.119C195.22 264.937 191.531 263.231 187.903 261.363C184.45 259.58 181.031 257.72 177.662 255.791C177.232 255.549 176.807 255.29 176.382 255.031C175.565 253.088 174.801 251.132 174.082 249.152C173.007 242.8 173.763 236.11 175.282 229.882C177.536 220.632 181.198 211.771 183.898 202.653C189.055 185.24 192.455 167.328 194.081 149.245C194.999 139.017 195.254 128.798 195.034 118.535C195.047 117.744 193.982 117.512 193.597 118.175ZM147.561 217.199C143.889 208.3 140.67 199.182 138.527 189.783C134.59 172.502 134.366 154.331 140.785 137.586C144.271 128.497 149.348 120.123 154.432 111.847C156.683 129.579 158.738 147.355 159.431 165.225C159.787 174.431 159.82 183.659 159.304 192.866C158.782 202.091 157.479 211.154 156.148 220.275C155.49 224.795 154.917 229.619 155.232 234.275C152.606 228.609 149.946 222.96 147.561 217.199ZM106.332 103.175C109.38 98.1588 112.695 93.3232 116.174 88.6064C113.492 110.69 106.304 132.245 95.2937 151.584C92.6568 156.213 89.799 160.725 86.7546 165.101C87.4739 143.046 94.8878 122.012 106.332 103.175ZM78.5338 103.724C82.5953 93.1619 87.8808 83.0258 94.2038 73.6302C97.3595 68.9353 100.918 64.598 104.454 60.2148C103.777 65.0927 102.634 69.9659 101.401 74.6962C99.9596 80.2024 98.1993 85.6267 96.108 90.9174C91.9762 101.4 86.6607 111.45 80.2611 120.726C77.189 125.189 73.8492 129.5 70.1879 133.498C72.2686 123.38 74.8131 113.399 78.5338 103.724ZM84.1687 46.0792C87.3519 41.2686 90.7604 36.4721 94.8537 32.3807C91.8699 42.3275 88.7224 52.1268 84.4743 61.6537C79.9231 71.8598 74.5066 81.6864 68.2861 90.9709C65.4649 95.1879 62.2084 99.2382 59.6263 103.636C64.4613 83.2401 72.5974 63.5744 84.1687 46.0792ZM34.4995 87.5064C26.6177 79.973 19.8498 71.5006 14.6954 61.8742C12.0619 56.9523 9.98616 51.8434 7.97889 46.67C11.2402 49.6852 14.3765 52.8522 17.5179 55.973C21.3145 59.7418 25.0596 63.5517 28.7022 67.4726C36.0985 75.4168 43.0167 83.8985 48.9553 92.9886C51.689 97.1766 54.2513 101.511 56.6013 105.941C48.9953 100.094 41.4342 94.1364 34.4995 87.5064ZM51.6375 55.2741C52.1688 43.6788 54.3534 32.2151 57.4599 21.0437C58.9775 15.5999 60.7386 10.2332 62.6041 4.8996C66.2662 17.4605 64.899 30.9541 63.2168 43.7543C62.2868 50.8681 61.1195 57.9449 59.7438 64.9844C58.5035 71.3298 57.1304 77.6713 56.3994 84.1015C56.0836 86.9208 55.8959 89.819 55.9218 92.7083C54.6359 87.4956 53.5172 82.269 52.5714 77.011C51.6524 69.8088 51.31 62.5406 51.6375 55.2741ZM19.9793 98.4576C17.2863 94.2921 15.1163 89.9286 13.0432 85.4714C20.3231 92.0099 27.8869 98.1693 35.2808 104.591C39.3165 108.091 43.1412 111.801 46.7094 115.775C50.0726 119.522 53.2815 123.391 56.7301 127.05C59.8686 130.39 63.2465 133.49 67.0104 136.071C47.8445 128.961 31.0865 115.599 19.9793 98.4576ZM52.7091 155.907C41.1493 149.304 29.3914 142.571 19.6518 133.387C14.9106 128.916 10.7286 123.925 7.3364 118.379C11.7539 121.493 16.2732 124.438 21.0135 127.051C26.568 130.113 32.3478 132.74 37.9249 135.762C48.9221 141.727 59.469 148.593 69.3846 156.206C74.7216 160.31 80.1049 164.419 85.0326 169.025C73.3804 167.332 62.8029 161.672 52.7091 155.907ZM21.1384 176.404C15.1568 173.36 9.62329 169.691 4.11164 165.924C9.70144 166.806 15.3726 167.283 21.029 167.506C27.7079 167.767 34.4016 167.831 41.0363 168.68C54.0279 170.348 66.4709 174.694 78.4004 179.96C84.5044 182.651 90.513 185.551 96.4595 188.556C70.8308 192.09 44.2216 188.134 21.1384 176.404ZM87.3963 222.257C73.7183 222.439 60.2792 220.552 47.1719 216.636C41.2182 214.854 35.6201 212.439 29.9749 209.96C34.8752 210.661 39.744 211.161 44.7726 211.071C51.6085 210.96 58.4135 210.255 65.2204 209.694C71.9696 209.135 78.7377 208.696 85.511 209.11C92.5386 209.539 99.5249 210.787 106.278 212.765C112.892 214.699 119.239 217.409 125.298 220.661C112.805 218.662 99.9599 222.085 87.3963 222.257ZM113.257 173.321C112.242 157.78 114.776 142.071 119.777 127.337C122.352 119.749 125.688 112.479 129.536 105.467C128.876 120.946 128.603 136.443 127.723 151.919C127.271 159.845 126.554 167.763 125.333 175.608C124.154 183.14 122.583 190.673 122.393 198.318C122.271 203.142 122.78 208.118 124.174 212.781C117.923 200.5 114.163 187.104 113.257 173.321ZM117.222 251.63C102.635 256.549 87.5535 259.388 72.1342 259.324C64.2802 259.294 56.5308 258.426 48.9131 256.576C55.3947 252.744 61.6883 248.661 68.6486 245.67C75.4826 242.745 82.6924 240.742 90.0285 239.574C104.568 237.262 119.404 238.165 133.785 241.001C139.308 242.092 144.749 243.5 150.151 245.031C139.028 244.138 127.784 248.068 117.222 251.63ZM158.99 269.456C152.804 272.482 146.327 274.86 139.698 276.722C126.436 280.433 112.672 282.024 98.9472 282.593C92.356 282.868 85.7836 282.814 79.2009 282.852C102.34 271.244 127.547 260.962 153.739 260.852C160.588 260.821 167.621 261.232 174.205 259.089C170.013 263.608 164.505 266.763 158.99 269.456ZM188.876 174.52C187.169 183.676 184.988 192.757 182.349 201.684C179.628 210.9 175.915 219.831 173.616 229.162C172.557 233.469 171.899 237.931 171.909 242.338C168.155 229.317 166.703 215.714 167.404 202.086C168.39 183.217 173.434 164.715 180.745 147.334C184.471 138.484 188.8 129.902 193.514 121.527C193.72 139.272 192.132 157.089 188.876 174.52Z" fill="#5C8692"/>
<path d="M193.597 118.175C184.099 134.729 176.027 152.213 171.016 170.668C166.045 188.973 164.203 208.241 166.953 227.05C168.049 234.538 169.86 241.918 172.515 248.991C172.783 250.463 173.131 251.923 173.594 253.353C169.002 250.605 164.501 247.694 160.084 244.667C156.279 237.536 156.81 229.09 157.887 221.247C159.068 212.538 160.238 203.892 160.696 195.107C161.643 176.838 160.575 158.581 158.971 140.384C158.057 130.015 156.913 119.678 155.82 109.329C155.729 108.506 154.685 108.204 154.227 108.949C149.349 117.06 144.511 125.223 140.824 133.952C137.356 142.175 135.198 150.737 134.493 159.636C133.037 178.327 137.644 196.96 144.514 214.203C147.916 222.748 151.722 231.229 155.997 239.409C156.253 240.466 156.596 241.494 156.99 242.509C146.604 235.139 136.757 227.011 127.565 218.211C121.66 205.054 124.96 190.067 127.144 176.325C129.541 161.196 129.88 145.883 130.283 130.61C130.521 121.372 130.708 112.147 130.831 102.911C130.84 102.311 130.001 102.15 129.719 102.644C121.747 116.303 115.614 131.406 112.917 147.024C110.155 162.995 110.711 179.587 115.244 195.181C117.099 201.579 119.605 207.743 122.821 213.539C122.335 213.05 121.844 212.578 121.37 212.083C108.185 198.571 96.6203 183.582 86.8319 167.499C100.428 148.942 110.061 127.617 115.06 105.176C116.501 98.7126 117.537 92.1684 118.225 85.5715C118.303 84.8782 117.2 84.4617 116.774 85.0158C102.352 103.971 90.5898 125.455 86.7333 149.176C85.8556 154.536 85.4872 159.98 85.5862 165.401C79.8841 155.84 74.8122 145.895 70.3776 135.664C77.5108 127.301 84.0622 118.6 89.4351 108.97C95.0508 98.9098 99.4098 88.1354 102.454 77.0399C104.196 70.6814 105.211 64.2932 106.282 57.8176C106.405 57.1006 105.555 56.5535 105.002 57.1153C101.041 61.1528 97.6138 65.8285 94.3763 70.4496C91.0536 75.1872 87.9934 80.1229 85.247 85.2155C79.799 95.2906 75.4341 106.053 72.54 117.129C71.1367 122.485 70.0407 127.929 69.4132 133.435C68.7102 131.766 68.0187 130.092 67.3501 128.406C64.5328 121.33 62.0138 114.099 59.7824 106.778C62.2731 102.006 65.8345 97.8703 68.8726 93.4541C72.0694 88.8105 75.0157 83.9918 77.7702 79.0837C83.2341 69.3487 87.8605 59.1473 91.6166 48.6412C93.7844 42.5707 95.789 36.3815 97.1162 30.0637C97.2742 29.3289 96.3963 28.8687 95.86 29.3783C87.4858 37.3388 81.1784 47.4955 75.6846 57.5943C70.3372 67.414 65.9323 77.7623 62.6635 88.4515C61.1289 93.4688 59.8896 98.551 58.882 103.688C58.6824 102.993 58.4943 102.292 58.3062 101.591C57.5465 95.9896 57.55 90.4582 58.1578 84.7738C58.854 78.3326 60.1983 71.9914 61.4327 65.6346C64.063 52.0246 66.3991 37.9863 66.5601 24.1008C66.6481 16.6244 65.8116 9.10378 63.4902 1.97395C63.2077 1.11865 62.1356 1.26693 61.8566 2.02082C53.955 23.7422 48.501 47.1871 50.5162 70.3675C50.9909 75.8112 51.9141 81.1099 53.4196 86.3252C54.5483 92.3304 55.8613 98.2982 57.416 104.199C48.1237 86.2928 34.1891 71.1072 20.0591 56.8934C15.6533 52.4529 11.0017 48.2121 6.72131 43.6487C6.2353 43.1309 5.35341 43.7032 5.55814 44.352C8.83807 55.0497 14.2346 65.5377 20.9049 74.4961C27.3516 83.1346 35.2493 90.5581 43.5552 97.3932C48.2304 101.23 53.0707 104.88 57.9051 108.518C57.9643 108.632 58.0294 108.758 58.0887 108.873C58.2604 109.205 58.5388 109.293 58.8034 109.214C60.1818 113.987 61.6868 118.724 63.3761 123.423C64.8018 127.388 66.3367 131.311 67.9693 135.197C60.2169 130.079 54.3125 122.742 48.1314 115.882C41.0893 108.088 33.0347 101.486 24.9731 94.7857C20.3615 90.9596 15.6452 87.0716 11.6546 82.5904C11.2386 82.1235 10.4484 82.6484 10.6406 83.2166C14.0725 93.168 20.3957 102.524 27.3001 110.388C34.4215 118.504 42.9191 125.428 52.3315 130.748C57.6135 133.733 63.2572 136.097 69.0325 137.927C69.0673 137.938 69.1076 137.932 69.1539 137.937C73.2079 147.32 77.819 156.458 82.9514 165.283C79.4347 162.168 75.918 159.053 72.1852 156.194C67.2857 152.43 62.2559 148.864 57.0785 145.49C51.8837 142.111 46.5531 138.947 41.1097 135.987C35.4686 132.925 29.6591 130.241 23.9507 127.331C17.254 123.916 11.3529 119.509 5.30712 115.075C4.64828 114.589 3.97923 115.544 4.28722 116.14C10.6325 128.096 21.0475 137.265 32.1108 144.764C37.8841 148.671 43.9065 152.188 49.9684 155.641C55.3383 158.712 60.7425 161.766 66.3828 164.319C72.5169 167.097 78.988 169.148 85.6907 169.904C89.2188 175.684 92.9989 181.304 96.9737 186.795C85.9799 181.539 75.0076 176.156 63.3862 172.386C57.1638 170.366 50.7789 168.734 44.2942 167.865C37.8443 167.008 31.3585 166.952 24.861 166.874C17.1794 166.784 9.42904 166.729 2.00893 164.53C1.52777 164.387 1.14404 165.079 1.52381 165.42C6.59843 169.776 12.4306 173.319 18.3152 176.457C24.2465 179.63 30.4198 182.314 36.7829 184.494C49.6601 188.92 63.2865 191.45 76.9275 191.534C84.106 191.579 91.2512 190.829 98.2964 189.492C98.3604 189.532 98.43 189.554 98.4941 189.593C98.6917 189.694 98.8823 189.697 99.0611 189.677C106.595 199.771 114.867 209.323 123.811 218.208C113.336 212.887 101.893 209.489 90.195 208.269C76.3921 206.832 62.8835 209.394 49.1327 210.194C41.4698 210.646 32.8345 210.933 25.5845 208.051C24.8358 207.756 24.2534 208.711 24.9696 209.168C30.6522 212.759 37.1929 215.282 43.5216 217.48C50.0302 219.744 56.7159 221.423 63.5271 222.529C70.0722 223.599 76.6975 224.178 83.3216 224.219C90.3559 224.267 97.2982 223.462 104.256 222.519C111.796 221.492 119.469 220.497 127.037 221.604C127.241 221.717 127.438 221.818 127.642 221.93C135.155 229.088 143.084 235.784 151.404 241.944C152.938 243.081 154.488 244.195 156.05 245.303C128.859 236.118 97.8181 232.395 70.5203 243.048C61.9993 246.367 53.8253 251.06 46.2457 256.171C45.6847 256.548 45.7155 257.592 46.4909 257.713C60.8993 259.984 75.5915 260.975 90.1217 259.264C97.4271 258.402 104.655 256.883 111.696 254.779C119.588 252.409 127.275 249.332 135.348 247.594C139.236 246.759 143.221 246.366 147.19 246.505C149.605 246.59 152.006 246.93 154.363 247.438C156.731 247.94 159.201 248.245 161.443 249.233C163.591 250.182 165.378 251.725 167.329 252.994C169.455 254.376 171.694 255.613 173.877 256.907C174.022 256.992 174.185 257.082 174.33 257.166C168.163 259.413 161.566 259.255 155.07 259.292C148.418 259.337 141.814 259.953 135.258 261.167C121.939 263.645 109.146 268.348 96.7122 273.662C89.6254 276.69 82.6215 279.878 75.5406 282.917C74.7079 283.275 74.8672 284.426 75.7917 284.47C89.8862 285.234 104.304 284.655 118.301 282.813C131.895 281.034 145.319 277.718 157.792 271.948C164.818 268.69 171.917 264.815 176.675 258.522C179.59 260.193 182.516 261.828 185.504 263.388C189.533 265.498 193.574 267.602 197.951 268.923C199.053 269.253 199.546 267.677 198.661 267.119C195.22 264.937 191.531 263.231 187.903 261.363C184.45 259.58 181.031 257.72 177.662 255.791C177.232 255.549 176.807 255.29 176.382 255.031C175.565 253.088 174.801 251.132 174.082 249.152C173.007 242.8 173.763 236.11 175.282 229.882C177.536 220.632 181.198 211.771 183.898 202.653C189.055 185.24 192.455 167.328 194.081 149.245C194.999 139.017 195.254 128.798 195.034 118.535C195.047 117.744 193.982 117.512 193.597 118.175ZM147.561 217.199C143.889 208.3 140.67 199.182 138.527 189.783C134.59 172.502 134.366 154.331 140.785 137.586C144.271 128.497 149.348 120.123 154.432 111.847C156.683 129.579 158.738 147.355 159.431 165.225C159.787 174.431 159.82 183.659 159.304 192.866C158.782 202.091 157.479 211.154 156.148 220.275C155.49 224.795 154.917 229.619 155.232 234.275C152.606 228.609 149.946 222.96 147.561 217.199ZM106.332 103.175C109.38 98.1588 112.695 93.3232 116.174 88.6064C113.492 110.69 106.304 132.245 95.2937 151.584C92.6568 156.213 89.799 160.725 86.7546 165.101C87.4739 143.046 94.8878 122.012 106.332 103.175ZM78.5338 103.724C82.5953 93.1619 87.8808 83.0258 94.2038 73.6302C97.3595 68.9353 100.918 64.598 104.454 60.2148C103.777 65.0927 102.634 69.9659 101.401 74.6962C99.9596 80.2024 98.1993 85.6267 96.108 90.9174C91.9762 101.4 86.6607 111.45 80.2611 120.726C77.189 125.189 73.8492 129.5 70.1879 133.498C72.2686 123.38 74.8131 113.399 78.5338 103.724ZM84.1687 46.0792C87.3519 41.2686 90.7604 36.4721 94.8537 32.3807C91.8699 42.3275 88.7224 52.1268 84.4743 61.6537C79.9231 71.8598 74.5066 81.6864 68.2861 90.9709C65.4649 95.1879 62.2084 99.2382 59.6263 103.636C64.4613 83.2401 72.5974 63.5744 84.1687 46.0792ZM34.4995 87.5064C26.6177 79.973 19.8498 71.5006 14.6954 61.8742C12.0619 56.9523 9.98616 51.8434 7.97889 46.67C11.2402 49.6852 14.3765 52.8522 17.5179 55.973C21.3145 59.7418 25.0596 63.5517 28.7022 67.4726C36.0985 75.4168 43.0167 83.8985 48.9553 92.9886C51.689 97.1766 54.2513 101.511 56.6013 105.941C48.9953 100.094 41.4342 94.1364 34.4995 87.5064ZM51.6375 55.2741C52.1688 43.6788 54.3534 32.2151 57.4599 21.0437C58.9775 15.5999 60.7386 10.2332 62.6041 4.8996C66.2662 17.4605 64.899 30.9541 63.2168 43.7543C62.2868 50.8681 61.1195 57.9449 59.7438 64.9844C58.5035 71.3298 57.1304 77.6713 56.3994 84.1015C56.0836 86.9208 55.8959 89.819 55.9218 92.7083C54.6359 87.4956 53.5172 82.269 52.5714 77.011C51.6524 69.8088 51.31 62.5406 51.6375 55.2741ZM19.9793 98.4576C17.2863 94.2921 15.1163 89.9286 13.0432 85.4714C20.3231 92.0099 27.8869 98.1693 35.2808 104.591C39.3165 108.091 43.1412 111.801 46.7094 115.775C50.0726 119.522 53.2815 123.391 56.7301 127.05C59.8686 130.39 63.2465 133.49 67.0104 136.071C47.8445 128.961 31.0865 115.599 19.9793 98.4576ZM52.7091 155.907C41.1493 149.304 29.3914 142.571 19.6518 133.387C14.9106 128.916 10.7286 123.925 7.3364 118.379C11.7539 121.493 16.2732 124.438 21.0135 127.051C26.568 130.113 32.3478 132.74 37.9249 135.762C48.9221 141.727 59.469 148.593 69.3846 156.206C74.7216 160.31 80.1049 164.419 85.0326 169.025C73.3804 167.332 62.8029 161.672 52.7091 155.907ZM21.1384 176.404C15.1568 173.36 9.62329 169.691 4.11164 165.924C9.70144 166.806 15.3726 167.283 21.029 167.506C27.7079 167.767 34.4016 167.831 41.0363 168.68C54.0279 170.348 66.4709 174.694 78.4004 179.96C84.5044 182.651 90.513 185.551 96.4595 188.556C70.8308 192.09 44.2216 188.134 21.1384 176.404ZM87.3963 222.257C73.7183 222.439 60.2792 220.552 47.1719 216.636C41.2182 214.854 35.6201 212.439 29.9749 209.96C34.8752 210.661 39.744 211.161 44.7726 211.071C51.6085 210.96 58.4135 210.255 65.2204 209.694C71.9696 209.135 78.7377 208.696 85.511 209.11C92.5386 209.539 99.5249 210.787 106.278 212.765C112.892 214.699 119.239 217.409 125.298 220.661C112.805 218.662 99.9599 222.085 87.3963 222.257ZM113.257 173.321C112.242 157.78 114.776 142.071 119.777 127.337C122.352 119.749 125.688 112.479 129.536 105.467C128.876 120.946 128.603 136.443 127.723 151.919C127.271 159.845 126.554 167.763 125.333 175.608C124.154 183.14 122.583 190.673 122.393 198.318C122.271 203.142 122.78 208.118 124.174 212.781C117.923 200.5 114.163 187.104 113.257 173.321ZM117.222 251.63C102.635 256.549 87.5535 259.388 72.1342 259.324C64.2802 259.294 56.5308 258.426 48.9131 256.576C55.3947 252.744 61.6883 248.661 68.6486 245.67C75.4826 242.745 82.6924 240.742 90.0285 239.574C104.568 237.262 119.404 238.165 133.785 241.001C139.308 242.092 144.749 243.5 150.151 245.031C139.028 244.138 127.784 248.068 117.222 251.63ZM158.99 269.456C152.804 272.482 146.327 274.86 139.698 276.722C126.436 280.433 112.672 282.024 98.9472 282.593C92.356 282.868 85.7836 282.814 79.2009 282.852C102.34 271.244 127.547 260.962 153.739 260.852C160.588 260.821 167.621 261.232 174.205 259.089C170.013 263.608 164.505 266.763 158.99 269.456ZM188.876 174.52C187.169 183.676 184.988 192.757 182.349 201.684C179.628 210.9 175.915 219.831 173.616 229.162C172.557 233.469 171.899 237.931 171.909 242.338C168.155 229.317 166.703 215.714 167.404 202.086C168.39 183.217 173.434 164.715 180.745 147.334C184.471 138.484 188.8 129.902 193.514 121.527C193.72 139.272 192.132 157.089 188.876 174.52Z" stroke="#5C8692" mask="url(#path-1-outside-1_214_18)"/>
</g>
</svg>
