<svg width="44" height="66" viewBox="0 0 44 66" fill="none" xmlns="http://www.w3.org/2000/svg">
<path d="M32.43 26.4258C31.4993 25.8161 29.8116 25.4525 27.912 25.4525C26.0137 25.4525 24.3247 25.8161 23.3953 26.4258C22.9345 26.7274 22.8043 27.3488 23.103 27.8128C23.4017 28.2769 24.0171 28.4097 24.4779 28.108C24.972 27.7845 26.2256 27.4583 27.9133 27.4583C29.601 27.4583 30.8546 27.7845 31.3487 28.108C31.5159 28.2176 31.7036 28.2704 31.8887 28.2704C32.2142 28.2704 32.5321 28.1093 32.7223 27.8141C33.0211 27.3488 32.8896 26.7274 32.43 26.4258Z" fill="#E5B1DE"/>
<path d="M27.5073 39.9725C27.1422 39.5587 26.5141 39.5239 26.1043 39.8926C25.5056 40.4327 24.0043 40.9767 22 40.9767C19.9944 40.9767 18.4931 40.4314 17.8957 39.8926C17.4859 39.5239 16.8578 39.5587 16.4927 39.9725C16.1276 40.385 16.162 41.0192 16.5718 41.3892C17.6786 42.3882 19.7085 42.9837 22 42.9837C24.2928 42.9837 26.3214 42.3882 27.4282 41.3892C27.838 41.0192 27.8737 40.3863 27.5073 39.9725Z" fill="#E5B1DE"/>
<path d="M19.6497 31.1295C19.2795 30.7196 18.6514 30.6913 18.2467 31.0651C17.9595 31.3293 17.1616 31.6142 16.088 31.6142C15.0143 31.6142 14.2164 31.3293 13.9292 31.0651C13.5232 30.6913 12.8951 30.7209 12.5262 31.1295C12.156 31.5395 12.1853 32.1737 12.59 32.5462C13.3202 33.2191 14.6275 33.62 16.088 33.62C17.5484 33.62 18.8569 33.2191 19.5859 32.5462C19.9906 32.1737 20.0199 31.5382 19.6497 31.1295Z" fill="#E5B1DE"/>
<path d="M20.6047 26.4258C19.674 25.8161 17.9863 25.4525 16.088 25.4525C14.1896 25.4525 12.5007 25.8161 11.5713 26.4258C11.1117 26.7274 10.9802 27.3488 11.2789 27.8128C11.4692 28.108 11.7883 28.2691 12.1126 28.2691C12.2977 28.2691 12.4854 28.2163 12.6526 28.1067C13.1466 27.7832 14.4003 27.457 16.088 27.457C17.7757 27.457 19.0293 27.7832 19.5234 28.1067C19.9842 28.4084 20.5996 28.2769 20.897 27.8115C21.1957 27.3488 21.0655 26.7274 20.6047 26.4258Z" fill="#E5B1DE"/>
<path d="M31.4738 31.1295C31.1036 30.7196 30.4755 30.6913 30.0708 31.0651C29.7836 31.3293 28.9857 31.6142 27.912 31.6142C26.8384 31.6142 26.0405 31.3293 25.7533 31.0651C25.3486 30.6913 24.7192 30.7209 24.3503 31.1295C23.98 31.5395 24.0094 32.1737 24.4141 32.5462C25.1443 33.2191 26.4516 33.62 27.912 33.62C29.3725 33.62 30.6797 33.2191 31.41 32.5462C31.8159 32.1737 31.844 31.5382 31.4738 31.1295Z" fill="#E5B1DE"/>
<path d="M41.2514 59.1938C39.4974 57.6881 37.105 56.8593 34.516 56.8593C31.1087 56.8593 28.752 56.0923 27.7601 55.6939V51.1461C32.8679 49.2757 36.8382 44.9934 38.3152 39.6683C41.5131 39.2636 43.9987 36.4959 43.9987 33.165C43.9987 30.0854 41.8412 27.439 38.9408 26.7712V24.5502C40.0884 20.4884 40.0169 16.4987 39.7501 13.8548C39.5982 12.3441 39.3684 11.1014 39.2025 10.3254C39.048 9.6048 38.9484 9.21551 38.8744 8.98992C38.8591 8.93062 38.8399 8.87262 38.8131 8.8159C37.7126 6.46078 35.7556 4.45371 33.2509 2.94938C33.1998 2.91199 33.1462 2.88105 33.09 2.85398C30.0121 1.05059 26.1299 0 22 0C18.7484 0 15.5684 0.649688 12.8045 1.87816C12.3028 2.10117 12.0743 2.69285 12.2951 3.20074C12.516 3.70734 13.102 3.93809 13.6049 3.71508C16.1186 2.59746 19.0216 2.00707 22 2.00707C25.295 2.00707 28.4023 2.7225 30.9785 3.97547C29.7708 5.02477 28.3333 6.03539 26.615 7.04215C26.1401 7.32059 25.9792 7.93418 26.255 8.41371C26.4388 8.73469 26.772 8.91387 27.1154 8.91387C27.2852 8.91387 27.4563 8.87004 27.6133 8.77851C29.6942 7.55906 31.401 6.32414 32.8104 5.01832C34.5339 6.15785 35.9062 7.57711 36.7794 9.20262C36.745 9.25805 36.7092 9.31219 36.6735 9.36762C36.6492 9.40371 36.625 9.44109 36.6007 9.47719C34.4253 12.6766 29.8091 15.742 23.1311 18.422C23.0915 18.4375 23.0507 18.4529 23.0111 18.4697C22.8655 18.5277 22.72 18.5857 22.5732 18.6424C15.9309 21.2334 9.15592 22.7558 6.76864 23.2495C6.22608 21.0285 6.05501 18.8371 6.07416 16.879C6.90013 16.7114 7.72228 16.4716 8.52527 16.2383C9.15464 16.054 9.80572 15.8645 10.4338 15.7175C10.444 15.715 10.4542 15.7124 10.4645 15.7098C14.5484 14.618 18.5672 13.1433 23.4962 10.9274C23.9979 10.7018 24.2226 10.1088 23.9992 9.60352C23.7758 9.0982 23.1885 8.87004 22.6881 9.09562C17.8663 11.2638 13.9432 12.705 9.97168 13.7672C9.29635 13.9257 8.62357 14.1217 7.97377 14.3112C7.35206 14.4929 6.75205 14.667 6.1648 14.8062C6.38055 12.0037 6.90907 9.99024 7.01503 9.6048C7.70313 8.16492 8.79081 6.85652 10.25 5.71184C10.684 5.37281 10.7619 4.74246 10.4262 4.30418C10.0891 3.86719 9.46614 3.78727 9.03209 4.12629C7.29972 5.48496 6.00522 7.06277 5.18436 8.81848C5.16393 8.8636 5.14606 8.90871 5.13201 8.95641C5.03754 9.27223 2.85069 16.7501 5.05669 24.5541V26.7751C2.15877 27.439 0 30.0867 0 33.1663C0 36.4972 2.48686 39.2648 5.68351 39.6696C7.16056 44.9947 11.1321 49.277 16.2386 51.1474V55.6952C15.2441 56.0948 12.8888 56.8618 9.48274 56.8618C6.89375 56.8618 4.50264 57.6907 2.74729 59.1963C0.976615 60.7148 0 62.7761 0 64.9971C0 65.5514 0.444264 66 0.993211 66H43.0068C43.5557 66 44 65.5514 44 64.9971C44 62.7761 43.0234 60.7148 41.2514 59.1938ZM38.7773 37.4331C38.8846 36.6468 38.9408 35.8527 38.9408 35.0599V28.8544C40.728 29.4654 42.0123 31.1876 42.0123 33.1663C42.0123 35.2301 40.6374 36.9832 38.7646 37.5349C38.7697 37.5014 38.7735 37.4666 38.7773 37.4331ZM1.98642 33.1663C1.98642 31.1876 3.2707 29.4654 5.05797 28.8544V35.0599C5.05797 35.854 5.11414 36.6468 5.22138 37.4331C5.22648 37.4666 5.22904 37.5014 5.23414 37.5349C3.36134 36.9819 1.98642 35.2301 1.98642 33.1663ZM37.1497 12.0128C37.1726 11.987 37.1956 11.9599 37.2186 11.9341C37.2811 11.862 37.3424 11.7898 37.4024 11.7176C37.4139 11.7034 37.4267 11.6892 37.4382 11.6763C37.8888 14.2119 38.3484 18.6708 37.2301 23.2482C35.2526 22.8396 30.2597 21.7284 24.8418 19.8864C30.5189 17.5145 34.6385 14.8796 37.1497 12.0128ZM7.2844 37.7554C7.28312 37.745 7.28057 37.7334 7.27801 37.7231C7.12099 36.8453 7.04567 35.952 7.04567 35.0599V25.2386C7.0546 25.2373 7.06482 25.2347 7.07503 25.2321C8.61336 24.9227 10.1427 24.5605 11.6645 24.1764C13.2679 23.7716 14.8624 23.3333 16.4467 22.8577C17.4846 22.5457 18.5187 22.2183 19.5451 21.8715C19.5642 21.8651 19.5821 21.8586 19.6012 21.8522H24.4013C29.9406 23.7226 35.0279 24.8441 36.9556 25.2373V35.0586C36.9556 35.9494 36.8777 36.8453 36.722 37.7231C36.7207 37.7334 36.7182 37.7438 36.7169 37.7541C35.7007 43.4311 31.53 48.0137 26.1107 49.5799C26.1018 49.5825 26.0928 49.5851 26.0839 49.5877C24.7575 49.9641 23.3787 50.16 22 50.16C20.6251 50.16 19.2361 49.9731 17.9148 49.5877C17.9084 49.5864 17.9033 49.5838 17.8969 49.5825C12.4751 48.0176 8.30186 43.4337 7.2844 37.7554ZM2.08089 63.9929C2.31707 62.7541 2.99112 61.6185 4.03412 60.7226C5.42947 59.525 7.36482 58.8663 9.48274 58.8663C14.5956 58.8663 17.574 57.3001 17.6978 57.2331C18.0221 57.0591 18.225 56.7188 18.225 56.3475V51.7404C18.2276 52.1232 21.7983 52.1671 21.9987 52.1671C23.2677 52.1671 24.5341 52.0253 25.7724 51.7404V56.3488C25.7724 56.72 25.9754 57.0604 26.2997 57.2344C26.4235 57.3014 29.4018 58.8676 34.5147 58.8676C36.6326 58.8676 38.568 59.5263 39.9633 60.7239C41.0076 61.6198 41.6804 62.7554 41.9166 63.9942H2.08089V63.9929Z" fill="#E5B1DE"/>
</svg>
