<svg width="67" height="68" viewBox="0 0 67 68" fill="none" xmlns="http://www.w3.org/2000/svg">
<path d="M10.4809 53.6365C10.279 54.1494 9.7889 54.4614 9.26952 54.4614C9.10996 54.4614 8.94715 54.432 8.78922 54.3683C3.80547 52.3869 0.782001 49.8402 0.0428229 47.0061C-0.139529 46.3085 0.277276 45.5931 0.974122 45.4117C1.67097 45.2304 2.38247 45.647 2.56319 46.3461C3.07606 48.3129 5.62899 50.3009 9.75145 51.9409C10.419 52.2055 10.7462 52.9651 10.4809 53.6365ZM14.9078 39.9558C15.1536 40.1649 15.4532 40.2678 15.7512 40.2678C16.1191 40.2678 16.4855 40.111 16.7427 39.8088C17.21 39.2599 17.1432 38.435 16.5962 37.9662C15.9498 37.414 15.3181 36.8293 14.7173 36.2265C8.99273 30.483 5.99532 23.1829 6.90382 17.3643C9.34604 16.9804 12.0488 17.2908 14.7873 18.2088C14.9029 18.2692 15.0299 18.3133 15.1618 18.3379C18.8072 19.6316 22.4998 21.9888 25.704 25.2035C26.5099 26.0121 27.2784 26.8713 27.9867 27.7534C28.4377 28.3154 29.2583 28.4036 29.8183 27.9511C30.3784 27.4986 30.4663 26.6753 30.0153 26.1134C29.2485 25.1578 28.4181 24.2299 27.5454 23.3544C24.2533 20.0514 20.4565 17.5766 16.6385 16.1163C16.5457 13.7526 16.9446 11.5947 17.7896 9.89421C19.9404 10.363 22.1661 11.6764 24.167 13.6644C23.8886 14.7801 23.6656 15.9333 23.5044 17.116C23.4067 17.8315 23.9049 18.4898 24.618 18.5878C25.3312 18.6858 25.9873 18.1859 26.085 17.4705C26.9609 11.0671 29.732 5.69117 33.5647 2.88316C37.3973 5.69117 40.1684 11.0654 41.0444 17.4672C41.1421 18.1827 41.7982 18.6825 42.5113 18.5845C43.2245 18.4865 43.7227 17.8266 43.625 17.1127C43.4638 15.93 43.2408 14.7784 42.9623 13.6644C44.9633 11.6764 47.1906 10.363 49.3398 9.89421C50.1832 11.5947 50.5837 13.7526 50.4909 16.1163C46.6729 17.5783 42.8761 20.053 39.5839 23.3544C38.7113 24.2299 37.8809 25.1578 37.114 26.1134C36.6631 26.6753 36.751 27.4986 37.3111 27.9511C37.8711 28.4036 38.6917 28.3154 39.1427 27.7534C39.851 26.8713 40.6194 26.0137 41.4254 25.2035C44.6296 21.9888 48.3206 19.63 51.966 18.3379C52.0995 18.3133 52.2265 18.2692 52.3421 18.2088C55.0806 17.2924 57.7833 16.9804 60.2256 17.3643C61.1341 23.1845 58.1367 30.4847 52.4121 36.2265C51.8113 36.8293 51.1796 37.414 50.5332 37.9662C49.9862 38.4334 49.9194 39.2583 50.3851 39.8088C50.8507 40.3576 51.6729 40.4246 52.2216 39.9574C52.9201 39.3612 53.6039 38.7274 54.2535 38.0756C60.8703 31.4386 64.1478 22.7565 62.6075 15.9595C62.4968 15.4694 62.1158 15.0872 61.6258 14.9744C58.9931 14.3733 56.0771 14.5024 53.1057 15.275C53.078 12.3968 52.3942 9.77659 51.1275 7.7592C50.8605 7.33449 50.3737 7.10089 49.8754 7.15807C47.259 7.4619 44.553 8.76871 42.1206 10.8841C40.4387 6.16816 37.6823 2.3637 34.2567 0.200922C33.8333 -0.0669741 33.2928 -0.0669741 32.8695 0.200922C29.4439 2.3637 26.6874 6.16816 25.0055 10.8841C22.5731 8.76871 19.8704 7.4619 17.2507 7.15807C16.7525 7.10089 16.2673 7.33449 16.0003 7.7592C14.7352 9.77659 14.053 12.3968 14.0253 15.275C11.0556 14.5024 8.13796 14.3733 5.50525 14.9744C5.01681 15.0855 4.63582 15.4694 4.52348 15.9595C2.98162 22.7565 6.26071 31.437 12.8775 38.0756C13.5255 38.7258 14.2093 39.3579 14.9078 39.9558ZM14.2907 50.1751C14.5284 49.4939 14.1702 48.749 13.4913 48.5105C9.56096 47.1318 7.2148 45.3889 7.2148 43.8501C7.2148 42.8553 8.23728 41.7314 10.0934 40.6843C10.7202 40.3315 10.9433 39.5344 10.5899 38.9054C10.2383 38.2765 9.44373 38.0528 8.81689 38.4072C6.02463 39.9819 4.60977 41.8131 4.60977 43.8517C4.60977 46.6745 7.38413 49.1378 12.6316 50.9804C12.7733 51.031 12.9182 51.0539 13.0615 51.0539C13.6004 51.0523 14.1035 50.7141 14.2907 50.1751ZM53.3808 48.602C52.7003 48.834 52.3356 49.5756 52.5668 50.26C52.7507 50.804 53.2571 51.147 53.7993 51.147C53.9377 51.147 54.0793 51.1241 54.2177 51.0768C59.6508 49.226 62.5245 46.7267 62.5245 43.8501C62.5245 41.885 61.2057 40.1094 58.6056 38.5722C57.9852 38.2063 57.1874 38.4121 56.8227 39.0345C56.458 39.6569 56.6632 40.4573 57.2835 40.8232C58.9833 41.8278 59.9195 42.9027 59.9195 43.8485C59.9178 45.4068 57.4138 47.2282 53.3808 48.602ZM46.484 58.1532C46.484 59.4763 45.4111 60.5544 44.0906 60.5544C43.371 60.5544 42.7881 61.1392 42.7881 61.8613C42.7881 62.5833 43.371 63.1681 44.0906 63.1681C46.8471 63.1681 49.0891 60.9187 49.0891 58.1532C49.0891 57.4312 48.5062 56.8464 47.7865 56.8464C47.0669 56.8464 46.484 57.4312 46.484 58.1532ZM66.025 45.4117C65.3298 45.2304 64.6167 45.647 64.4359 46.3461C63.9231 48.3145 61.3718 50.3009 57.2493 51.9409C56.5801 52.2072 56.2529 52.9668 56.5183 53.6381C56.7202 54.1511 57.2119 54.4631 57.7296 54.4631C57.8892 54.4631 58.052 54.4337 58.2099 54.3699C63.1937 52.3869 66.2188 49.8402 66.9579 47.0061C67.1387 46.3085 66.7202 45.5947 66.025 45.4117ZM42.8793 45.9786C42.8793 46.6908 42.3029 47.2691 41.5931 47.2691C40.8734 47.2691 40.2906 47.8538 40.2906 48.5759C40.2906 49.2979 40.8734 49.8827 41.5931 49.8827C43.739 49.8827 45.4843 48.1315 45.4843 45.9786C45.4843 45.2566 44.9015 44.6718 44.1818 44.6718C43.4622 44.6718 42.8793 45.2582 42.8793 45.9786ZM39.1574 37.6329H39.4977C40.2173 37.6329 40.8002 37.0481 40.8002 36.3261C40.8002 35.6041 40.2173 35.0193 39.4977 35.0193H39.1574C38.4377 35.0193 37.8549 35.6041 37.8549 36.3261C37.8549 37.0481 38.4394 37.6329 39.1574 37.6329ZM52.6124 52.6156C53.8058 54.2768 54.4375 56.2354 54.4375 58.2789C54.4375 63.6385 50.092 68 44.7484 68H22.3859C17.0439 68 12.6968 63.6401 12.6968 58.2806C12.6968 54.7244 14.6603 51.4705 17.7082 49.7749C17.2816 48.8078 17.0455 47.7362 17.0455 46.6124C17.0455 43.1934 19.2354 40.2776 22.2817 39.2028C21.6092 38.2259 21.2136 37.0416 21.2136 35.7658C21.2136 32.4253 23.9228 29.7071 27.2524 29.7071H39.8819C43.2115 29.7071 45.9207 32.4253 45.9207 35.7658C45.9207 39.1064 43.2115 41.8245 39.8819 41.8245H27.2524C26.4416 41.8245 25.6682 41.6628 24.9599 41.3721C24.9306 41.3737 24.8997 41.3753 24.8704 41.3753C21.9918 41.3753 19.6506 43.7243 19.6506 46.6124C19.6506 47.6921 19.9778 48.6984 20.5395 49.5331C20.5835 49.587 20.6242 49.6442 20.66 49.7046C21.6109 51.0033 23.1446 51.8494 24.8704 51.8494H42.2639C45.1424 51.8494 47.4837 49.5004 47.4837 46.6124C47.4837 45.0573 46.7934 43.5887 45.5885 42.5841C45.035 42.1235 44.9601 41.2985 45.4192 40.7432C45.8784 40.1878 46.7006 40.1126 47.2541 40.5733C49.0549 42.0761 50.0887 44.2765 50.0887 46.6107C50.0887 50.9396 46.5785 54.4614 42.2639 54.4614H24.8704C22.6154 54.4614 20.5802 53.4993 19.1507 51.9621C16.8176 53.1726 15.3018 55.6098 15.3018 58.2789C15.3018 62.1978 18.4799 65.3864 22.3859 65.3864H44.7484C48.6543 65.3864 51.8325 62.1978 51.8325 58.2806C51.8325 56.7892 51.3717 55.3599 50.499 54.1462C50.079 53.5614 50.2108 52.7446 50.7937 52.3215C51.3766 51.8984 52.1907 52.0308 52.6124 52.6156ZM23.8186 35.7658C23.8186 37.6656 25.3588 39.2109 27.2524 39.2109H39.8819C41.7754 39.2109 43.3157 37.6656 43.3157 35.7658C43.3157 33.8661 41.7754 32.3207 39.8819 32.3207H27.2524C25.3588 32.3207 23.8186 33.8661 23.8186 35.7658Z" fill="#E5B1DE"/>
</svg>
