<svg width="59" height="72" viewBox="0 0 59 72" fill="none" xmlns="http://www.w3.org/2000/svg">
<path d="M10.8628 29.0802C11.6318 29.0802 12.2552 28.443 12.2552 27.6571C12.2552 26.8711 11.6318 26.234 10.8628 26.234C10.0938 26.234 9.47038 26.8711 9.47038 27.6571C9.47038 28.443 10.0938 29.0802 10.8628 29.0802Z" fill="#E5B1DE"/>
<path d="M57.9562 26.1651C57.0797 25.1357 55.7836 24.5465 54.4009 24.5465H43.138V22.1096C43.138 18.5407 40.2968 15.6369 36.8048 15.6369H35.7138V15.4555C35.7138 12.9047 33.7353 10.8193 31.2642 10.7138V8.28671C32.2989 8.03922 33.1973 7.68345 33.9527 7.21519C35.3561 6.34475 35.9642 5.29292 36.227 4.56451C36.8131 2.93754 36.1967 1.07293 34.8236 0.320612C34.4328 0.108277 34.0187 0 33.5908 0C32.6593 0 31.7843 0.528729 31.256 1.39354C30.989 1.57213 29.9681 2.1107 27.3664 2.1107H20.8846C17.5922 2.1107 15.5462 4.41123 15.5462 8.11656C15.5462 9.93196 16.8258 11.4099 18.3998 11.4099C19.8018 11.4099 20.9713 10.2371 21.2093 8.69732H24.3229V10.7138C21.8519 10.8193 19.8734 12.9047 19.8734 15.4555V15.6369H18.7809C15.2889 15.6369 12.4478 18.5407 12.4478 22.1096V22.2052H8.36692C6.55628 22.2052 5.08272 23.7113 5.08272 25.5618V31.9052C4.09346 32.77 3.46469 34.0524 3.46469 35.4853V37.5763C1.588 38.946 0.309811 41.134 0.146082 43.6441C0.0759126 44.7451 0.0263812 45.9123 0.000239578 47.1103C-0.0121433 47.7164 0.45703 48.2184 1.05003 48.2325C1.64166 48.2465 2.13422 47.7656 2.1466 47.1596C2.17137 45.9938 2.21952 44.8604 2.28832 43.7889C2.43141 41.5728 3.76876 39.7011 5.62618 38.8152C5.63994 38.8096 5.65233 38.8025 5.66471 38.7969C6.40768 38.4524 7.23045 38.2668 8.04635 38.2668H13.6764C14.4951 38.2668 15.3137 38.4524 16.0581 38.7969C16.0718 38.8025 16.0842 38.8096 16.0966 38.8152C17.9746 39.7053 19.2969 41.6754 19.4344 43.7889C19.5431 45.4553 19.5968 47.168 19.5968 48.8765C19.5968 49.6851 19.5748 50.4922 19.5583 51.2994C19.5569 51.3275 19.5569 51.3556 19.5555 51.3852C19.5459 51.6706 18.7685 52.4581 18.6062 52.7534C18.3393 53.2385 18.1232 53.749 17.9636 54.2805C17.6004 55.4871 17.5234 56.7597 17.5013 58.014C17.4697 59.8927 17.6527 61.7798 18.0586 63.6135C18.06 63.6219 18.0613 63.6289 18.0641 63.6374C17.3858 65.5442 15.6412 66.8055 13.6406 66.8055H8.08212C5.87109 66.8055 3.93386 65.194 3.47294 62.9736C2.74235 59.4511 2.30483 55.5883 2.17137 51.4906C2.15211 50.8846 1.65266 50.4093 1.06241 50.4304C0.469412 50.4501 0.0043672 50.9577 0.0250053 51.5638C0.162593 55.7894 0.616631 59.7816 1.37199 63.4292C2.04066 66.6579 4.86395 69.002 8.08212 69.002H13.6434C15.7347 69.002 17.6334 68.0556 18.9034 66.4962C19.5817 68.3425 20.4952 70.0552 21.6248 71.5683C21.8285 71.8397 22.1435 72 22.4779 72H42.7431C43.0775 72 43.3939 71.8397 43.5962 71.5683C43.9236 71.131 44.2318 70.6754 44.5221 70.2071H53.7556C54.3486 70.2071 54.8302 69.7163 54.8302 69.1089V60.0473L57.3797 41.224C57.4608 40.6236 57.0508 40.0695 56.4633 39.9866C55.8745 39.9036 55.3337 40.3226 55.2526 40.9231L53.2135 55.9806H47.5999C47.527 55.2592 47.3729 54.5477 47.1239 53.8685C46.3589 51.7845 44.7932 50.1407 42.8298 49.2829L42.7913 48.9946L40.1166 29.246C40.1069 29.1757 40.1014 29.104 40.0987 29.0337C40.0987 29.0295 40.0987 29.0267 40.0987 29.0225C40.0794 28.3123 40.4523 27.6725 40.9944 27.2521C41.4305 26.9146 42.0029 26.743 42.5464 26.743H54.4023C55.1631 26.743 55.8689 27.058 56.3381 27.6078C56.7371 28.0761 56.9132 28.6583 56.8334 29.2446L55.8469 36.5301C55.7658 37.1306 56.1758 37.6846 56.7633 37.7676C57.3508 37.8505 57.8929 37.4315 57.974 36.8311L58.9605 29.5442C59.1256 28.3194 58.7693 27.1185 57.9562 26.1651ZM20.8832 6.50084C20.3879 6.50084 19.7729 6.55849 19.4166 6.95926C19.1373 7.27284 19.1042 7.71298 19.1042 8.11656C19.1042 8.76341 18.7328 9.2148 18.3984 9.2148C18.0641 9.2148 17.6926 8.76341 17.6926 8.11656C17.6926 4.80075 19.6917 4.30718 20.8832 4.30718H27.365C28.3666 4.30718 29.4068 4.24249 30.4015 4.02312C31.2587 3.83329 32.2177 3.55205 32.8478 2.89395C33.0776 2.65349 33.1891 2.19788 33.5894 2.19788C33.661 2.19788 33.7311 2.21757 33.8041 2.25694C34.1838 2.46506 34.437 3.17238 34.2072 3.80798C34.0228 4.31983 33.2235 5.76681 30.0383 6.30116C30.0301 6.30257 30.0232 6.30257 30.0149 6.30397C29.1399 6.45022 28.251 6.50225 27.365 6.50225L20.8832 6.50084ZM29.1137 8.62419V10.7068H26.4707V8.69591C26.4734 8.74372 29.1137 8.64669 29.1137 8.62419ZM24.5169 12.9018H31.0675C32.4433 12.9018 33.5633 14.0465 33.5633 15.4527V15.6341H22.0211V15.4527C22.0211 14.0465 23.1411 12.9018 24.5169 12.9018ZM7.23183 25.566V25.5604C7.23183 24.9206 7.7409 24.4003 8.36692 24.4003H13.3572C13.382 24.4003 13.4054 24.4031 13.4288 24.4045C13.4343 24.4045 13.4384 24.4059 13.4425 24.4059C14.7014 24.5001 14.4923 25.9977 14.4923 26.8977C14.4923 27.9903 14.4923 29.0829 14.4923 30.1755C14.4923 30.4019 14.4923 30.6269 14.4923 30.8533C14.2158 30.8013 13.9337 30.7746 13.6517 30.7746C13.6517 30.7746 8.07386 30.7746 8.07111 30.7746C7.81107 30.7746 7.507 30.8519 7.2332 30.8435C7.15203 29.0956 7.23183 27.3181 7.23183 25.566ZM16.1117 36.4612C16.1117 36.142 13.9791 36.0689 13.6764 36.0689H8.0491C7.22495 36.0689 6.39805 36.2025 5.6138 36.4612V35.4825C5.6138 34.1255 6.74477 32.9682 8.07386 32.9682H13.6544C14.462 32.9682 15.2422 33.3957 15.6934 34.0791C16.164 34.7921 16.1117 35.6414 16.1117 36.4612ZM46.1787 66.9728C46.1952 66.918 46.2076 66.8758 46.2172 66.8491C46.5901 65.772 46.923 64.6751 47.1665 63.5586C47.5518 61.7952 47.7403 59.9798 47.7197 58.1729H52.6824V68.0078C52.6824 68.0078 45.6985 68.0078 45.6957 68.0078C45.8801 68.0092 46.0837 67.2935 46.1787 66.9728ZM45.0257 54.4324H39.9542C39.3612 54.4324 38.8797 54.9232 38.8797 55.5306C38.8797 56.1381 39.3598 56.6289 39.9542 56.6289H45.499C45.5031 56.6753 45.5059 56.7231 45.51 56.7695C45.8443 61.3171 44.8124 66.0588 42.201 69.8035H23.0214C21.7046 67.9164 20.7512 65.7017 20.1994 63.3111C19.6972 61.1329 19.5404 58.8591 19.722 56.6289H35.6574C36.2504 56.6289 36.7319 56.1381 36.7319 55.5306C36.7319 54.9232 36.2518 54.4324 35.6574 54.4324H20.1926C20.4705 53.7588 20.8722 53.1415 21.3841 52.6072C22.4559 51.4878 23.9872 50.8213 25.5378 50.8213H39.6832C40.1744 50.8213 40.6587 50.886 41.1251 51.0111C42.8449 51.4681 44.3212 52.7253 45.0257 54.4324ZM40.9889 24.8067C40.9889 24.7997 39.7079 25.4859 39.5855 25.5843C37.4776 27.3013 38.0211 29.8099 38.3417 32.1794L40.5761 48.6768C40.5692 48.6754 40.5624 48.6754 40.5541 48.6754C40.4317 48.6614 40.3078 48.6515 40.184 48.6431C40.1565 48.6417 40.1303 48.6389 40.1028 48.6375C39.9639 48.6304 39.8235 48.6248 39.6818 48.6248H25.5378C24.8568 48.6248 24.1771 48.7148 23.518 48.8906C23.1975 48.9764 22.881 49.0818 22.5742 49.2056C22.4614 49.252 21.7445 49.5065 21.7432 49.6021C21.7459 49.3574 21.7459 49.1156 21.7459 48.8737C21.7459 47.116 21.6895 45.3554 21.5781 43.6413C21.4969 42.3912 21.1226 41.1579 20.5049 40.0766C20.2242 39.5858 19.8926 39.1246 19.5184 38.7041C19.3244 38.4861 19.1194 38.2794 18.9034 38.0854C18.8222 38.0123 18.2595 37.641 18.2595 37.5637V35.4811C18.2595 34.1269 17.6609 32.784 16.6414 31.8981V25.559C16.6414 25.4803 16.6373 25.4029 16.6318 25.3256C16.6304 25.3101 16.629 25.2932 16.6277 25.2778C16.5231 23.9967 15.7127 22.9182 14.5955 22.4513V22.1068C14.5955 19.7486 16.4736 17.8291 18.7809 17.8291H36.8021C39.1094 17.8291 40.9875 19.7486 40.9875 22.1068C40.9889 22.1082 40.9889 24.8067 40.9889 24.8067Z" fill="#E5B1DE"/>
</svg>
