<svg width="167" height="134" viewBox="0 0 167 134" fill="none" xmlns="http://www.w3.org/2000/svg">
<g clip-path="url(#clip0_259_497)">
<path d="M134.535 128.942C135.126 128.979 135.452 128.245 135.005 127.817L134.961 127.641C134.967 127.626 134.973 127.612 134.979 127.598C135.576 126.174 137.601 126.183 138.193 127.61C138.719 128.876 139.388 130.145 139.553 131.484C139.627 132.075 139.594 132.677 139.463 133.257C140.695 130.566 141.343 127.627 141.343 124.672C141.343 123.93 141.302 123.187 141.219 122.446C141.151 121.841 141.057 121.239 140.935 120.642C140.275 117.417 138.848 114.346 136.788 111.78C135.798 111.239 134.973 110.393 134.474 109.379C134.295 109.013 134.155 108.62 134.088 108.219C134.201 108.234 134.513 106.518 134.428 106.413C134.585 106.175 134.866 106.056 135.037 105.824C135.89 104.667 137.065 104.869 137.679 106.441C138.989 107.102 139.002 108.199 138.198 109.254C137.686 109.925 137.616 110.833 137.167 111.551C137.213 111.61 137.261 111.668 137.307 111.727C138.154 112.813 138.886 113.98 139.504 115.206C139.329 113.843 139.587 112.201 140.026 111.143C140.526 109.937 141.463 108.921 142.288 107.879C143.279 106.626 145.312 107.173 145.486 108.76C145.488 108.776 145.49 108.791 145.491 108.807C145.369 108.876 145.249 108.949 145.131 109.027C144.462 109.469 144.694 110.506 145.486 110.629L145.504 110.631C145.46 111.073 145.384 111.511 145.273 111.941C146.332 116.035 144.046 117.526 140.783 117.593C140.711 117.63 140.641 117.666 140.569 117.702C140.9 118.632 141.164 119.587 141.36 120.555C141.535 121.41 141.657 122.275 141.725 123.143C141.81 124.238 141.803 125.339 141.71 126.432L141.716 126.393C141.951 125.189 142.604 124.064 143.554 123.285C144.968 122.123 146.966 121.695 148.492 120.762C149.226 120.312 150.167 120.893 150.039 121.744L150.033 121.785C149.806 121.878 149.584 121.985 149.37 122.105C149.247 122.174 149.127 122.247 149.01 122.325C148.341 122.767 148.572 123.804 149.365 123.927L149.383 123.93C149.396 123.931 149.407 123.933 149.42 123.935C149.03 124.86 148.487 125.719 147.807 126.46C147.145 130.034 144.303 130.373 141.262 129.332H141.26C140.927 130.78 140.442 132.195 139.817 133.543H134.664C134.646 133.486 134.629 133.427 134.613 133.369C135.089 133.399 135.569 133.371 136.038 133.284C135.656 132.815 135.274 132.342 134.891 131.873C134.882 131.864 134.875 131.855 134.867 131.846C134.674 131.606 134.478 131.367 134.284 131.127L134.284 131.127C134.272 130.39 134.36 129.655 134.535 128.942Z" fill="#F2F2F2"/>
<path d="M147.159 62.149C145.792 70.7907 138.477 82.6523 128.423 94.0906H74.0704L79.7524 58.1627C93.0095 58.2199 109.709 54.1393 123.195 52.2205C138.037 50.113 148.98 50.622 147.159 62.149Z" fill="#E6E6E6"/>
<path d="M46.3639 94.0905H17.7251C16.1409 94.0905 14.8541 92.8037 14.8541 91.2195V74.4566C15.4918 73.8046 16.1295 73.1669 16.7586 72.5435C27.422 62.0088 36.5126 55.895 41.9201 66.2382C45.1572 72.432 46.5698 82.5378 46.3639 94.0905Z" fill="#E6E6E6"/>
<path d="M163.257 0H3.74606C1.6814 0 0 1.67854 0 3.74319V57.1631C0 59.142 1.54701 60.772 3.49441 60.8978C3.57735 60.9064 3.66029 60.9092 3.74605 60.9092H14.9328V60.3373H3.74606C3.66029 60.3373 3.57735 60.3344 3.49441 60.3259C1.8616 60.1972 0.571921 58.8274 0.571921 57.1631V3.74319C0.571918 1.99312 1.99599 0.571918 3.74606 0.571918H163.257C165.007 0.571918 166.428 1.99312 166.428 3.74319V57.1631C166.428 58.9132 165.007 60.3373 163.257 60.3373H150.477V60.9092H163.257C165.321 60.9092 167 59.2277 167 57.1631V3.74319C167 1.67854 165.321 0 163.257 0Z" fill="#E6E6E6"/>
<path d="M19.7918 18.311C21.7601 18.311 23.3558 16.749 23.3558 14.8221C23.3558 12.8953 21.7601 11.3333 19.7918 11.3333C17.8234 11.3333 16.2278 12.8953 16.2278 14.8221C16.2278 16.749 17.8234 18.311 19.7918 18.311Z" fill="#E5B1DE"/>
<path d="M48.3627 13.6286H29.1792C28.5211 13.6286 27.9856 13.0931 27.9856 12.435C27.9856 11.7769 28.5211 11.2415 29.1792 11.2415H48.3627C49.0208 11.2415 49.5563 11.7769 49.5563 12.435C49.5563 13.0931 49.0208 13.6286 48.3627 13.6286Z" fill="#F2F2F2"/>
<path d="M63.3336 17.6684H29.1792C28.5211 17.6684 27.9856 17.1329 27.9856 16.4748C27.9856 15.8167 28.5211 15.2812 29.1792 15.2812H63.3336C63.9917 15.2812 64.5272 15.8167 64.5272 16.4748C64.5272 17.1329 63.9917 17.6684 63.3336 17.6684Z" fill="#F2F2F2"/>
<path d="M112.756 30.8937C110.491 30.8937 108.649 29.0512 108.649 26.7863C108.649 24.5215 110.491 22.679 112.756 22.679C115.021 22.679 116.863 24.5215 116.863 26.7863C116.863 29.0512 115.021 30.8937 112.756 30.8937ZM112.756 23.2509C110.807 23.2509 109.221 24.8369 109.221 26.7863C109.221 28.7358 110.807 30.3218 112.756 30.3218C114.705 30.3218 116.292 28.7358 116.292 26.7863C116.292 24.8369 114.705 23.2509 112.756 23.2509Z" fill="#3F3D56"/>
<path d="M126.95 30.8937C124.685 30.8937 122.843 29.0512 122.843 26.7863C122.843 24.5215 124.685 22.679 126.95 22.679C129.215 22.679 131.057 24.5215 131.057 26.7863C131.057 29.0512 129.215 30.8937 126.95 30.8937ZM126.95 23.2509C125 23.2509 123.414 24.8369 123.414 26.7863C123.414 28.7358 125 30.3218 126.95 30.3218C128.899 30.3218 130.486 28.7358 130.486 26.7863C130.486 24.8369 128.899 23.2509 126.95 23.2509Z" fill="#3F3D56"/>
<path d="M126.95 28.9699C128.156 28.9699 129.134 27.9922 129.134 26.7862C129.134 25.5802 128.156 24.6025 126.95 24.6025C125.744 24.6025 124.766 25.5802 124.766 26.7862C124.766 27.9922 125.744 28.9699 126.95 28.9699Z" fill="#E5B1DE"/>
<path d="M141.144 30.8937C138.879 30.8937 137.037 29.0512 137.037 26.7863C137.037 24.5215 138.879 22.679 141.144 22.679C143.409 22.679 145.251 24.5215 145.251 26.7863C145.251 29.0512 143.409 30.8937 141.144 30.8937ZM141.144 23.2509C139.195 23.2509 137.609 24.8369 137.609 26.7863C137.609 28.7358 139.195 30.3218 141.144 30.3218C143.093 30.3218 144.679 28.7358 144.679 26.7863C144.679 24.8369 143.093 23.2509 141.144 23.2509Z" fill="#3F3D56"/>
<path d="M130.805 94.0906H57.235C55.2212 80.989 48.5808 65.1302 44.5795 52.1095C40.178 37.7813 38.9711 26.8903 50.6427 26.8903C63.1168 26.8903 83.9389 37.8075 101.241 52.1095C117.078 65.1958 129.967 81.1158 130.805 94.0906Z" fill="#F2F2F2"/>
<path d="M147.528 94.3765H17.7251C15.9844 94.3765 14.5681 92.9604 14.5681 91.2195V42.0575C14.5681 40.3168 15.9844 38.9005 17.7251 38.9005H147.528C149.268 38.9005 150.685 40.3168 150.685 42.0575V91.2195C150.685 92.9604 149.268 94.3765 147.528 94.3765ZM17.7251 39.4724C16.2996 39.4724 15.14 40.632 15.14 42.0575V91.2195C15.14 92.6449 16.2996 93.8046 17.7251 93.8046H147.528C148.953 93.8046 150.113 92.6449 150.113 91.2195V42.0575C150.113 40.632 148.953 39.4724 147.528 39.4724H17.7251Z" fill="#3F3D56"/>
<path d="M117.29 131.349L119.518 131.349L120.579 122.752L117.289 122.753L117.29 131.349Z" fill="#FFB6B6"/>
<path d="M109.233 131.349L111.462 131.349L112.522 122.752L109.233 122.753L109.233 131.349Z" fill="#FFB6B6"/>
<path d="M104.522 81.626L107.541 105.653L109.186 126.699H112.985L114.94 105.324L114.611 89.7037L116.913 104.666L116.465 126.699H120.691L124.312 104.995L124.01 80.1366L104.522 81.626Z" fill="#2F2E41"/>
<path d="M117.242 43.5011H110.717L108.692 46.2539L103.431 48.7009L106.555 67.8177L104.417 82.0406C104.417 82.0406 119.38 86.6287 124.312 80.9701C124.853 80.256 124.915 79.4533 124.105 78.4896L123.161 67.206L123.326 47.6303L118.229 45.7951L117.242 43.5011Z" fill="#E5B1DE"/>
<path d="M99.7216 80.6023L101.083 75.1129L104.327 75.4531L102.681 81.2056C102.76 81.3705 102.817 81.5495 102.845 81.7396C103.001 82.7735 102.288 83.7376 101.255 83.8931C100.221 84.0485 99.2565 83.3364 99.1011 82.3025C99.0019 81.6432 99.2566 81.0132 99.7216 80.6023Z" fill="#FFB6B6"/>
<path d="M105.169 48.2513L102.757 48.8706C101.92 48.9422 100.505 54.4548 101.194 55.6492C101.194 55.6492 100.132 65.3253 100.713 66.2368C101.294 67.1483 100.025 78.1942 100.025 78.1942L104.416 78.2172L107.831 56.987L104.776 50.6652C104.742 49.5988 106.232 48.1603 105.169 48.2513Z" fill="#E5B1DE"/>
<path d="M124.869 30.0958L126.311 35.2675L129.381 34.8555L127.661 29.4419C127.731 29.2832 127.779 29.1119 127.801 28.9307C127.92 27.9453 127.218 27.05 126.233 26.9309C125.247 26.8118 124.352 27.5141 124.233 28.4995C124.157 29.1279 124.416 29.7186 124.869 30.0958Z" fill="#FFB6B6"/>
<path d="M118.458 51.3546C118.784 52.5959 119.996 53.3907 121.263 53.1866C123.248 52.867 126.016 52.1731 127.31 50.7081L131.242 47.9942L132.44 46.9398C133.097 46.3618 133.336 45.4424 133.044 44.6178L128.34 31.3357L124.698 32.4366L127.908 41.9525L128.094 42.0461C126.396 42.4566 123.713 44.8157 122.947 46.0496C121.327 45.8622 120.259 47.07 119.37 48.727C118.561 49.3366 118.201 50.3748 118.458 51.3546Z" fill="#E5B1DE"/>
<path d="M113.941 42.7372C117.03 42.7372 119.535 40.2326 119.535 37.1431C119.535 34.0535 117.03 31.549 113.941 31.549C110.851 31.549 108.347 34.0535 108.347 37.1431C108.347 40.2326 110.851 42.7372 113.941 42.7372Z" fill="#FFB6B6"/>
<path d="M118.228 33.6361C118.06 34.4482 119.152 35.4805 118.983 36.2898C118.872 36.8388 118.74 37.4165 118.323 37.8283C117.934 38.2086 117.353 38.383 116.927 38.729C116.352 39.1951 116.115 39.9672 116.341 40.6307C116.493 41.0682 116.824 41.5286 116.796 41.9518C116.79 42.0576 116.761 42.1634 116.698 42.2635C116.441 42.6953 115.789 42.7468 115.246 42.7468H112.526C110.542 42.7439 108.809 41.4371 108.226 39.5383C108.137 39.2552 108.045 38.9893 107.948 38.7576C107.556 37.8254 107.27 36.856 107.099 35.8723C106.936 34.9544 107.819 34.5026 108.2 33.6361C108.614 32.6839 108.58 31.4399 109.595 30.9824C110.61 30.522 111.686 31.1912 112.804 31.0053L112.847 30.9967C114.182 30.7565 115.62 29.7099 116.927 30.0273C117.679 30.2103 118.4 30.5964 118.909 31.1197C118.549 31.3084 118.163 31.4399 117.765 31.5114C118.3 31.5029 118.84 31.5743 119.358 31.723C119.495 31.9718 119.587 32.2435 119.618 32.5266C119.667 32.9498 118.44 33.1757 118.248 33.5761C118.24 33.5961 118.231 33.6161 118.228 33.6361Z" fill="#2F2E41"/>
<path d="M140.321 28.6794C140.243 28.6794 140.165 28.6477 140.109 28.5854C140.003 28.4683 140.012 28.2874 140.129 28.1815L141.716 26.7447L140.279 25.158C140.173 25.0409 140.182 24.8601 140.299 24.7541C140.416 24.6482 140.597 24.6571 140.703 24.7743L142.331 26.5729C142.437 26.69 142.429 26.8708 142.311 26.9768L140.513 28.6054C140.458 28.6549 140.389 28.6794 140.321 28.6794Z" fill="#3F3D56"/>
<path d="M113.611 28.6794C113.542 28.6794 113.474 28.6549 113.419 28.6054L111.62 26.9768C111.503 26.8708 111.494 26.69 111.6 26.5729L113.229 24.7743C113.334 24.6571 113.515 24.6482 113.632 24.7541C113.749 24.8601 113.759 25.0409 113.652 25.158L112.216 26.7447L113.803 28.1815C113.92 28.2874 113.929 28.4683 113.823 28.5854C113.766 28.6477 113.689 28.6794 113.611 28.6794Z" fill="#3F3D56"/>
<path d="M125.193 131.66C125.171 132.113 124.642 133.24 124.207 133.37C122.9 133.762 116.675 133.591 116.437 132.718C115.853 133.257 116.424 128.36 117.151 128.987C118.639 130.271 119.677 129.681 119.882 128.642L120.129 128.015L120.177 128.085C120.327 128.305 119.954 127.644 120.22 127.629C120.25 127.627 120.943 129.025 121.166 129.182L121.184 129.211C121.783 130.176 122.884 130.71 124.013 130.583C124.362 130.544 124.726 130.659 124.95 130.931C125.113 131.129 125.205 131.386 125.193 131.66Z" fill="#2F2E41"/>
<path d="M117.186 131.66C117.165 132.113 116.635 133.24 116.2 133.37C114.893 133.762 108.668 133.591 108.43 132.718C107.846 133.257 108.417 128.36 109.144 128.987C110.632 130.271 111.67 129.681 111.875 128.642L112.122 128.015L112.17 128.085C112.32 128.305 111.947 127.644 112.213 127.629C112.243 127.627 112.936 129.025 113.16 129.182L113.177 129.211C113.776 130.176 114.877 130.71 116.006 130.583C116.356 130.544 116.719 130.659 116.943 130.931C117.106 131.129 117.198 131.386 117.186 131.66Z" fill="#2F2E41"/>
<path d="M79.5393 133.66C79.5393 133.848 79.6909 134 79.8796 134H152.31C152.499 134 152.65 133.848 152.65 133.66C152.65 133.471 152.499 133.319 152.31 133.319H79.8796C79.6909 133.319 79.5393 133.471 79.5393 133.66Z" fill="#CCCCCC"/>
</g>
<defs>
<clipPath id="clip0_259_497">
<rect width="167" height="134" fill="white"/>
</clipPath>
</defs>
</svg>
