<svg width="172" height="170" viewBox="0 0 172 170" fill="none" xmlns="http://www.w3.org/2000/svg">
<g clip-path="url(#clip0_259_776)">
<path d="M172 169.611C172 169.827 171.826 170 171.61 170H0.390112C0.173757 170 0 169.827 0 169.611C0 169.395 0.173757 169.222 0.390112 169.222H171.61C171.826 169.222 172 169.395 172 169.611Z" fill="#3F3D56"/>
<path d="M118.85 150.676L120.817 158.847L114.917 160.481L113.605 151.657L118.85 150.676Z" fill="#FFB6B6"/>
<path d="M128.357 124.205L122.128 129.434L118.195 135.643L123.768 139.238L133.275 128.454L128.357 124.205Z" fill="#FFB6B6"/>
<path d="M126.39 70.2823L131.635 87.9298C131.635 87.9298 154.911 108.192 152.616 112.44C150.321 116.689 134.914 128.454 134.914 128.454C134.914 128.454 136.057 132.216 132.699 130.662C129.341 129.107 125.735 124.859 125.735 124.859C125.735 124.859 125.735 121.591 127.374 122.244C129.013 122.898 136.553 114.074 136.553 114.074L120.162 99.0412V149.309C120.162 149.309 124.095 152.738 120.162 153.014C116.228 153.291 112.622 153.944 112.622 153.944C112.622 153.944 108.032 152.31 109.671 150.676L104.754 123.878L101.148 91.1979L103.77 74.204L126.39 70.2823Z" fill="#2F2E41"/>
<path d="M115.9 157.866C115.9 157.866 116.228 156.559 117.539 156.559H121.544C121.544 156.559 122.784 162.115 122.456 162.115C122.129 162.115 127.702 169.304 121.801 169.631C115.9 169.958 114.261 169.304 114.261 169.304L113.605 166.725C113.605 166.725 112.622 165.056 112.949 163.749C113.277 162.441 115.9 157.866 115.9 157.866Z" fill="#2F2E41"/>
<path d="M124.096 136.624C124.096 136.624 127.861 136.565 126.962 137.575C126.062 138.585 124.423 140.219 124.423 140.219C124.423 140.219 120.524 148.062 118.704 146.591C116.883 145.121 113.933 128.78 114.916 126.82C115.9 124.859 117.211 124.859 117.211 124.859L123.259 128.485C123.259 128.485 119.506 137.604 124.096 136.624Z" fill="#2F2E41"/>
<path d="M114.916 42.5039L116.228 34.3337L107.376 30.7389L106.065 43.1575L114.916 42.5039Z" fill="#FFB6B6"/>
<path opacity="0.1" d="M114.916 42.5039L116.228 34.3337L107.376 30.7389L106.065 43.1575L114.916 42.5039Z" fill="black"/>
<path d="M105.573 41.36L116.064 38.7456L127.21 42.3405C127.21 42.3405 132.127 56.0663 130.488 60.9684C128.849 65.8704 128.849 75.4456 128.849 75.4456C128.849 75.4456 128.685 71.2627 119.178 74.204C109.671 77.1452 102.787 76.8184 102.787 76.8184L102.459 65.0534L98.3409 54.6032C96.5806 50.1366 98.4779 45.0652 102.742 42.8384L105.573 41.36Z" fill="#E6E6E6"/>
<path d="M153.729 79.8586C155.209 81.6264 155.494 83.8208 154.366 84.7598C153.237 85.6987 151.122 85.0266 149.642 83.2579C149.04 82.5594 148.616 81.7276 148.403 80.8321L142.226 73.2625L145.235 70.8351L151.556 78.2095C152.402 78.5783 153.147 79.1438 153.729 79.8586Z" fill="#FFB6B6"/>
<path d="M126.734 42.4448L124.584 50.934L135.106 67.7249L145.848 78.4869L149.329 75.6075L138.496 62.1704L130.285 44.8571L126.734 42.4448Z" fill="#E6E6E6"/>
<path d="M151.782 34.2509C159.276 33.6988 164.782 25.5906 164.082 16.1407C163.381 6.69078 156.739 -0.522393 149.245 0.0296368C141.752 0.581666 136.246 8.68986 136.946 18.1398C137.647 27.5897 144.289 34.8029 151.782 34.2509Z" fill="#E5B1DE"/>
<path d="M151.497 34.251H150.842V99.4284H151.497V34.251Z" fill="#2F2E41"/>
<path d="M151.661 32.8746L151.739 35.1842L152.786 37.3222L148.418 37.1001L150.254 35.259L150.047 33.1605L151.661 32.8746Z" fill="#E5B1DE"/>
<path d="M112.68 36.9601C117.665 36.9601 121.706 32.9315 121.706 27.962C121.706 22.9925 117.665 18.9639 112.68 18.9639C107.695 18.9639 103.654 22.9925 103.654 27.962C103.654 32.9315 107.695 36.9601 112.68 36.9601Z" fill="#FFB6B6"/>
<path d="M111.959 15.8647C112.221 16.0167 112.57 15.7867 112.654 15.497C112.738 15.2073 112.64 14.8998 112.544 14.6141L112.057 13.1761C111.711 12.1563 111.345 11.1008 110.597 10.3246C109.467 9.15301 107.673 8.85496 106.058 9.07088C103.984 9.34817 101.937 10.4679 100.972 12.3195C100.008 14.1711 100.419 16.7548 102.161 17.91C99.6775 20.748 98.8117 23.9109 98.9484 27.6748C99.0851 31.4387 103.2 34.9028 105.883 37.5543C106.482 37.1922 107.027 35.4952 106.697 34.8787C106.368 34.2623 106.84 33.5481 106.432 32.9802C106.024 32.4124 105.682 33.3166 106.095 32.7519C106.355 32.3957 105.339 31.576 105.726 31.3628C107.598 30.3313 108.22 28.0056 109.396 26.2245C110.814 24.0763 113.241 22.6214 115.809 22.3801C117.224 22.2471 118.718 22.4879 119.878 23.3067C121.037 24.1255 121.788 25.5887 121.519 26.9797C122.216 26.2747 122.562 25.2417 122.431 24.2609C122.301 23.2802 121.695 22.3732 120.838 21.8741C121.359 20.1564 120.913 18.1805 119.704 16.8512C118.494 15.522 113.588 15.7484 111.823 16.0982" fill="#2F2E41"/>
<path d="M111.685 22.4323C109.347 22.6839 107.658 24.7033 106.232 26.5682C105.411 27.643 104.55 28.8301 104.57 30.1814C104.591 31.5476 105.508 32.7194 105.946 34.0142C106.661 36.1305 105.964 38.6485 104.26 40.0986C105.943 40.417 107.763 39.1586 108.054 37.475C108.392 35.515 106.902 33.6234 107.079 31.6425C107.234 29.8972 108.614 28.5541 109.787 27.2492C110.96 25.9443 112.061 24.2127 111.521 22.5452" fill="#2F2E41"/>
<path d="M103.077 76.6548H35.6534C28.0075 76.6548 21.8093 82.8337 21.8093 90.4558V155.631C21.8093 163.254 28.0075 169.432 35.6533 169.432H103.077C110.723 169.432 116.921 163.253 116.921 155.631V90.4558C116.921 82.8337 110.723 76.6548 103.077 76.6548Z" fill="white"/>
<path d="M103.077 169.759H35.6536C27.8392 169.759 21.4817 163.421 21.4817 155.631V90.4558C21.4817 82.6658 27.8392 76.328 35.6536 76.328H103.077C110.891 76.328 117.249 82.6658 117.249 90.4558V155.631C117.249 163.421 110.891 169.759 103.077 169.759ZM35.6536 76.9816C28.2007 76.9816 22.1373 83.0261 22.1373 90.4558V155.631C22.1373 163.061 28.2007 169.105 35.6536 169.105H103.077C110.53 169.105 116.593 163.061 116.593 155.631V90.4558C116.593 83.0261 110.53 76.9816 103.077 76.9816H35.6536Z" fill="#3F3D56"/>
<path d="M95.9626 83.0664C96.826 83.0664 97.526 82.3686 97.526 81.5079C97.526 80.6471 96.826 79.9493 95.9626 79.9493C95.0991 79.9493 94.3992 80.6471 94.3992 81.5079C94.3992 82.3686 95.0991 83.0664 95.9626 83.0664Z" fill="#3F3D56"/>
<path d="M100.262 83.0664C101.125 83.0664 101.825 82.3686 101.825 81.5079C101.825 80.6471 101.125 79.9493 100.262 79.9493C99.3985 79.9493 98.6985 80.6471 98.6985 81.5079C98.6985 82.3686 99.3985 83.0664 100.262 83.0664Z" fill="#3F3D56"/>
<path d="M104.561 83.0664C105.425 83.0664 106.125 82.3686 106.125 81.5079C106.125 80.6471 105.425 79.9493 104.561 79.9493C103.698 79.9493 102.998 80.6471 102.998 81.5079C102.998 82.3686 103.698 83.0664 104.561 83.0664Z" fill="#3F3D56"/>
<path d="M33.4431 146.615C32.9574 146.615 32.5623 147.009 32.5623 147.493C32.5623 147.729 32.6537 147.948 32.8197 148.109C32.9872 148.28 33.2065 148.371 33.4431 148.371H103.958C104.443 148.371 104.839 147.977 104.839 147.493C104.839 147.257 104.747 147.039 104.581 146.877C104.414 146.706 104.194 146.615 103.958 146.615H33.4431Z" fill="#E6E6E6"/>
<path d="M71.1478 146.322V148.664H33.4432C33.1203 148.664 32.8267 148.535 32.6153 148.318C32.398 148.108 32.2688 147.815 32.2688 147.493C32.2688 146.849 32.7973 146.322 33.4432 146.322L71.1478 146.322Z" fill="#E5B1DE"/>
<path d="M102.49 141.932H90.7454C89.4502 141.932 88.3965 140.882 88.3965 139.59C88.3965 138.299 89.4502 137.249 90.7454 137.249H102.49C103.785 137.249 104.839 138.299 104.839 139.59C104.839 140.882 103.785 141.932 102.49 141.932Z" fill="#E6E6E6"/>
<path d="M58.3673 143.605L50.1573 116.105L49.5288 116.292L57.71 143.695" fill="#2F2E41"/>
<path d="M58.6515 81.0202C66.1447 80.4681 71.6513 72.3599 70.9508 62.91C70.2503 53.4601 63.6079 46.2469 56.1146 46.7989C48.6214 47.351 43.1148 55.4591 43.8153 64.9091C44.5158 74.359 51.1582 81.5722 58.6515 81.0202Z" fill="#E5B1DE"/>
<path d="M58.3666 81.0203H57.7109V146.198H58.3666V81.0203Z" fill="#2F2E41"/>
<path d="M50.5263 115.308L51.2623 117.5L52.8774 119.251L48.6272 120.28L49.8604 117.994L49.0612 116.041L50.5263 115.308Z" fill="#E5B1DE"/>
<path d="M58.5298 79.6439L58.6084 81.9534L59.6554 84.0915L55.2874 83.8694L57.1235 82.0283L56.9159 79.9298L58.5298 79.6439Z" fill="#E5B1DE"/>
<path d="M50.7472 115.883C57.7649 113.207 60.7008 103.863 57.3047 95.0124C53.9085 86.1622 45.4664 81.1572 38.4487 83.8334C31.4309 86.5096 28.4951 95.8536 31.8912 104.704C35.2873 113.554 43.7294 118.559 50.7472 115.883Z" fill="#E5B1DE"/>
<path d="M110.316 73.3095C112.528 73.975 113.976 75.652 113.551 77.0549C113.125 78.4578 110.988 79.0552 108.776 78.3891C107.889 78.1351 107.076 77.673 106.404 77.0413L97.0701 74.1033L98.2449 70.4266L107.591 73.123C108.502 72.9673 109.436 73.0312 110.316 73.3095Z" fill="#FFB6B6"/>
<path d="M94.0994 49.2034L103.934 42.0137L103.606 55.7395L94.4273 67.5045L104.262 71.4261L103.934 77.0256C103.934 77.0256 91.4768 74.0406 89.5099 73.7138C87.5429 73.387 85.9038 68.8117 85.9038 68.8117L94.0994 49.2034Z" fill="#E6E6E6"/>
</g>
<defs>
<clipPath id="clip0_259_776">
<rect width="172" height="170" fill="white"/>
</clipPath>
</defs>
</svg>
