<svg width="25" height="25" viewBox="0 0 25 25" fill="none" xmlns="http://www.w3.org/2000/svg">
<path d="M0 0.833333C0 0.61232 0.0877991 0.400358 0.244083 0.244078C0.400366 0.0877973 0.612332 0 0.83335 0H3.3334C3.51929 5.13525e-05 3.69982 0.0622511 3.8463 0.176708C3.99277 0.291165 4.09676 0.451306 4.14175 0.631667L4.81676 3.33333H24.1672C24.2904 3.33341 24.4121 3.36082 24.5235 3.41359C24.6348 3.46636 24.7331 3.54317 24.8112 3.6385C24.8894 3.73383 24.9454 3.84529 24.9752 3.96487C25.005 4.08444 25.008 4.20915 24.9838 4.33L23.3171 12.6633C23.2807 12.8451 23.1847 13.0094 23.0443 13.1305C22.9039 13.2515 22.7272 13.3223 22.5421 13.3317L6.88014 14.1183L7.35848 16.6667H21.6671C21.8881 16.6667 22.1001 16.7545 22.2564 16.9107C22.4127 17.067 22.5005 17.279 22.5005 17.5C22.5005 17.721 22.4127 17.933 22.2564 18.0893C22.1001 18.2455 21.8881 18.3333 21.6671 18.3333H6.6668C6.47252 18.3332 6.2844 18.2651 6.13497 18.1409C5.98555 18.0168 5.8842 17.8443 5.84845 17.6533L3.35007 4.345L2.68339 1.66667H0.83335C0.612332 1.66667 0.400366 1.57887 0.244083 1.42259C0.0877991 1.26631 0 1.05435 0 0.833333ZM5.1701 5L6.57013 12.465L21.8104 11.7L23.1505 5H5.1701ZM8.3335 18.3333C7.44943 18.3333 6.60156 18.6845 5.97643 19.3096C5.3513 19.9348 5.0001 20.7826 5.0001 21.6667C5.0001 22.5507 5.3513 23.3986 5.97643 24.0237C6.60156 24.6488 7.44943 25 8.3335 25C9.21757 25 10.0654 24.6488 10.6906 24.0237C11.3157 23.3986 11.6669 22.5507 11.6669 21.6667C11.6669 20.7826 11.3157 19.9348 10.6906 19.3096C10.0654 18.6845 9.21757 18.3333 8.3335 18.3333ZM20.0004 18.3333C19.1163 18.3333 18.2685 18.6845 17.6433 19.3096C17.0182 19.9348 16.667 20.7826 16.667 21.6667C16.667 22.5507 17.0182 23.3986 17.6433 24.0237C18.2685 24.6488 19.1163 25 20.0004 25C20.8845 25 21.7323 24.6488 22.3575 24.0237C22.9826 23.3986 23.3338 22.5507 23.3338 21.6667C23.3338 20.7826 22.9826 19.9348 22.3575 19.3096C21.7323 18.6845 20.8845 18.3333 20.0004 18.3333ZM8.3335 20C8.77554 20 9.19947 20.1756 9.51204 20.4882C9.8246 20.8007 10.0002 21.2246 10.0002 21.6667C10.0002 22.1087 9.8246 22.5326 9.51204 22.8452C9.19947 23.1577 8.77554 23.3333 8.3335 23.3333C7.89146 23.3333 7.46753 23.1577 7.15497 22.8452C6.8424 22.5326 6.6668 22.1087 6.6668 21.6667C6.6668 21.2246 6.8424 20.8007 7.15497 20.4882C7.46753 20.1756 7.89146 20 8.3335 20ZM20.0004 20C20.4424 20 20.8664 20.1756 21.1789 20.4882C21.4915 20.8007 21.6671 21.2246 21.6671 21.6667C21.6671 22.1087 21.4915 22.5326 21.1789 22.8452C20.8664 23.1577 20.4424 23.3333 20.0004 23.3333C19.5584 23.3333 19.1344 23.1577 18.8219 22.8452C18.5093 22.5326 18.3337 22.1087 18.3337 21.6667C18.3337 21.2246 18.5093 20.8007 18.8219 20.4882C19.1344 20.1756 19.5584 20 20.0004 20Z" fill="#E5B1DE"/>
</svg>
